<?xml version="1.0" encoding="UTF-8" standalone="no"?>
<!DOCTYPE svg PUBLIC "-//W3C//DTD SVG 1.0//EN" "http://www.w3.org/TR/2001/PR-SVG-20010719/DTD/svg10.dtd">
<svg width="15cm" height="12cm" viewBox="619 -477 298 234" xmlns="http://www.w3.org/2000/svg" xmlns:xlink="http://www.w3.org/1999/xlink">
  <g>
    <rect style="fill: #c6ebff" x="625" y="-476" width="286" height="232"/>
    <path style="fill: #c6ebff" d="M 625,-476 A 5,5 0 0 0 620,-471 L 625,-471 z"/>
    <path style="fill: #c6ebff" d="M 916,-471 A 5,5 0 0 0 911,-476 L 911,-471 z"/>
    <rect style="fill: #c6ebff" x="620" y="-471" width="296" height="222"/>
    <path style="fill: #c6ebff" d="M 620,-249 A 5,5 0 0 0 625,-244 L 625,-249 z"/>
    <path style="fill: #c6ebff" d="M 911,-244 A 5,5 0 0 0 916,-249 L 911,-249 z"/>
    <line style="fill: none; fill-opacity:0; stroke-width: 1.5; stroke: #000000" x1="625" y1="-476" x2="911" y2="-476"/>
    <line style="fill: none; fill-opacity:0; stroke-width: 1.5; stroke: #000000" x1="625" y1="-244" x2="911" y2="-244"/>
    <path style="fill: none; fill-opacity:0; stroke-width: 1.5; stroke: #000000" d="M 625,-476 A 5,5 0 0 0 620,-471"/>
    <path style="fill: none; fill-opacity:0; stroke-width: 1.5; stroke: #000000" d="M 916,-471 A 5,5 0 0 0 911,-476"/>
    <line style="fill: none; fill-opacity:0; stroke-width: 1.5; stroke: #000000" x1="620" y1="-471" x2="620" y2="-249"/>
    <line style="fill: none; fill-opacity:0; stroke-width: 1.5; stroke: #000000" x1="916" y1="-471" x2="916" y2="-249"/>
    <path style="fill: none; fill-opacity:0; stroke-width: 1.5; stroke: #000000" d="M 620,-249 A 5,5 0 0 0 625,-244"/>
    <path style="fill: none; fill-opacity:0; stroke-width: 1.5; stroke: #000000" d="M 911,-244 A 5,5 0 0 0 916,-249"/>
    <text font-size="12.7998" style="fill: #000000;text-anchor:middle;font-family: Helvetica, Arial, sans-serif;font-style:normal;font-weight:normal" x="768" y="-356.1">
      <tspan x="768" y="-356.1"></tspan>
    </text>
  </g>
  <g>
    <rect style="fill: #fff3c6" x="633" y="-452" width="126" height="200"/>
    <path style="fill: #fff3c6" d="M 633,-452 A 5,5 0 0 0 628,-447 L 633,-447 z"/>
    <path style="fill: #fff3c6" d="M 764,-447 A 5,5 0 0 0 759,-452 L 759,-447 z"/>
    <rect style="fill: #fff3c6" x="628" y="-447" width="136" height="190"/>
    <path style="fill: #fff3c6" d="M 628,-257 A 5,5 0 0 0 633,-252 L 633,-257 z"/>
    <path style="fill: #fff3c6" d="M 759,-252 A 5,5 0 0 0 764,-257 L 759,-257 z"/>
    <line style="fill: none; fill-opacity:0; stroke-width: 1.5; stroke: #000000" x1="633" y1="-452" x2="759" y2="-452"/>
    <line style="fill: none; fill-opacity:0; stroke-width: 1.5; stroke: #000000" x1="633" y1="-252" x2="759" y2="-252"/>
    <path style="fill: none; fill-opacity:0; stroke-width: 1.5; stroke: #000000" d="M 633,-452 A 5,5 0 0 0 628,-447"/>
    <path style="fill: none; fill-opacity:0; stroke-width: 1.5; stroke: #000000" d="M 764,-447 A 5,5 0 0 0 759,-452"/>
    <line style="fill: none; fill-opacity:0; stroke-width: 1.5; stroke: #000000" x1="628" y1="-447" x2="628" y2="-257"/>
    <line style="fill: none; fill-opacity:0; stroke-width: 1.5; stroke: #000000" x1="764" y1="-447" x2="764" y2="-257"/>
    <path style="fill: none; fill-opacity:0; stroke-width: 1.5; stroke: #000000" d="M 628,-257 A 5,5 0 0 0 633,-252"/>
    <path style="fill: none; fill-opacity:0; stroke-width: 1.5; stroke: #000000" d="M 759,-252 A 5,5 0 0 0 764,-257"/>
    <text font-size="12.7998" style="fill: #000000;text-anchor:middle;font-family: Helvetica, Arial, sans-serif;font-style:normal;font-weight:normal" x="696" y="-348.1">
      <tspan x="696" y="-348.1"></tspan>
    </text>
  </g>
  <text font-size="9.03111" style="fill: #000000;text-anchor:middle;font-family: Helvetica, Arial, sans-serif;font-style:normal;font-weight:700" x="768" y="-460.875">
    <tspan x="768" y="-460.875">Tracing session</tspan>
  </text>
  <g>
    <rect style="fill: #ffffff" x="641" y="-428" width="110" height="80"/>
    <path style="fill: #ffffff" d="M 641,-428 A 5,5 0 0 0 636,-423 L 641,-423 z"/>
    <path style="fill: #ffffff" d="M 756,-423 A 5,5 0 0 0 751,-428 L 751,-423 z"/>
    <rect style="fill: #ffffff" x="636" y="-423" width="120" height="70"/>
    <path style="fill: #ffffff" d="M 636,-353 A 5,5 0 0 0 641,-348 L 641,-353 z"/>
    <path style="fill: #ffffff" d="M 751,-348 A 5,5 0 0 0 756,-353 L 751,-353 z"/>
    <line style="fill: none; fill-opacity:0; stroke-width: 1.5; stroke: #000000" x1="641" y1="-428" x2="751" y2="-428"/>
    <line style="fill: none; fill-opacity:0; stroke-width: 1.5; stroke: #000000" x1="641" y1="-348" x2="751" y2="-348"/>
    <path style="fill: none; fill-opacity:0; stroke-width: 1.5; stroke: #000000" d="M 641,-428 A 5,5 0 0 0 636,-423"/>
    <path style="fill: none; fill-opacity:0; stroke-width: 1.5; stroke: #000000" d="M 756,-423 A 5,5 0 0 0 751,-428"/>
    <line style="fill: none; fill-opacity:0; stroke-width: 1.5; stroke: #000000" x1="636" y1="-423" x2="636" y2="-353"/>
    <line style="fill: none; fill-opacity:0; stroke-width: 1.5; stroke: #000000" x1="756" y1="-423" x2="756" y2="-353"/>
    <path style="fill: none; fill-opacity:0; stroke-width: 1.5; stroke: #000000" d="M 636,-353 A 5,5 0 0 0 641,-348"/>
    <path style="fill: none; fill-opacity:0; stroke-width: 1.5; stroke: #000000" d="M 751,-348 A 5,5 0 0 0 756,-353"/>
    <text font-size="11.2887" style="fill: #000000;text-anchor:middle;font-family: Helvetica, Arial, sans-serif;font-style:normal;font-weight:normal" x="696" y="-384.556">
      <tspan x="696" y="-384.556"></tspan>
    </text>
  </g>
  <text font-size="9.03097" style="fill: #000000;text-anchor:middle;font-family: Helvetica, Arial, sans-serif;font-style:normal;font-weight:normal" x="696" y="-436.875">
    <tspan x="696" y="-436.875">Linux kernel domain</tspan>
  </text>
  <text font-size="9.03111" style="fill: #000000;text-anchor:middle;font-family: Helvetica, Arial, sans-serif;font-style:italic;font-weight:normal" x="696" y="-412.875">
    <tspan x="696" y="-412.875">Channel</tspan>
  </text>
  <g>
    <rect style="fill: #ffffff" x="641" y="-340" width="110" height="80"/>
    <path style="fill: #ffffff" d="M 641,-340 A 5,5 0 0 0 636,-335 L 641,-335 z"/>
    <path style="fill: #ffffff" d="M 756,-335 A 5,5 0 0 0 751,-340 L 751,-335 z"/>
    <rect style="fill: #ffffff" x="636" y="-335" width="120" height="70"/>
    <path style="fill: #ffffff" d="M 636,-265 A 5,5 0 0 0 641,-260 L 641,-265 z"/>
    <path style="fill: #ffffff" d="M 751,-260 A 5,5 0 0 0 756,-265 L 751,-265 z"/>
    <line style="fill: none; fill-opacity:0; stroke-width: 1.5; stroke: #000000" x1="641" y1="-340" x2="751" y2="-340"/>
    <line style="fill: none; fill-opacity:0; stroke-width: 1.5; stroke: #000000" x1="641" y1="-260" x2="751" y2="-260"/>
    <path style="fill: none; fill-opacity:0; stroke-width: 1.5; stroke: #000000" d="M 641,-340 A 5,5 0 0 0 636,-335"/>
    <path style="fill: none; fill-opacity:0; stroke-width: 1.5; stroke: #000000" d="M 756,-335 A 5,5 0 0 0 751,-340"/>
    <line style="fill: none; fill-opacity:0; stroke-width: 1.5; stroke: #000000" x1="636" y1="-335" x2="636" y2="-265"/>
    <line style="fill: none; fill-opacity:0; stroke-width: 1.5; stroke: #000000" x1="756" y1="-335" x2="756" y2="-265"/>
    <path style="fill: none; fill-opacity:0; stroke-width: 1.5; stroke: #000000" d="M 636,-265 A 5,5 0 0 0 641,-260"/>
    <path style="fill: none; fill-opacity:0; stroke-width: 1.5; stroke: #000000" d="M 751,-260 A 5,5 0 0 0 756,-265"/>
    <text font-size="12.7998" style="fill: #000000;text-anchor:middle;font-family: Helvetica, Arial, sans-serif;font-style:normal;font-weight:normal" x="696" y="-296.1">
      <tspan x="696" y="-296.1"></tspan>
    </text>
  </g>
  <text font-size="9.03111" style="fill: #000000;text-anchor:middle;font-family: Helvetica, Arial, sans-serif;font-style:italic;font-weight:normal" x="696" y="-324.875">
    <tspan x="696" y="-324.875">Channel</tspan>
  </text>
  <g>
    <rect style="fill: #c7f4c7" x="649" y="-404" width="38" height="20"/>
    <path style="fill: #c7f4c7" d="M 649,-404 A 5,5 0 0 0 644,-399 L 649,-399 z"/>
    <path style="fill: #c7f4c7" d="M 692,-399 A 5,5 0 0 0 687,-404 L 687,-399 z"/>
    <rect style="fill: #c7f4c7" x="644" y="-399" width="48" height="10"/>
    <path style="fill: #c7f4c7" d="M 644,-389 A 5,5 0 0 0 649,-384 L 649,-389 z"/>
    <path style="fill: #c7f4c7" d="M 687,-384 A 5,5 0 0 0 692,-389 L 687,-389 z"/>
    <line style="fill: none; fill-opacity:0; stroke-width: 1.5; stroke: #000000" x1="649" y1="-404" x2="687" y2="-404"/>
    <line style="fill: none; fill-opacity:0; stroke-width: 1.5; stroke: #000000" x1="649" y1="-384" x2="687" y2="-384"/>
    <path style="fill: none; fill-opacity:0; stroke-width: 1.5; stroke: #000000" d="M 649,-404 A 5,5 0 0 0 644,-399"/>
    <path style="fill: none; fill-opacity:0; stroke-width: 1.5; stroke: #000000" d="M 692,-399 A 5,5 0 0 0 687,-404"/>
    <line style="fill: none; fill-opacity:0; stroke-width: 1.5; stroke: #000000" x1="644" y1="-399" x2="644" y2="-389"/>
    <line style="fill: none; fill-opacity:0; stroke-width: 1.5; stroke: #000000" x1="692" y1="-399" x2="692" y2="-389"/>
    <path style="fill: none; fill-opacity:0; stroke-width: 1.5; stroke: #000000" d="M 644,-389 A 5,5 0 0 0 649,-384"/>
    <path style="fill: none; fill-opacity:0; stroke-width: 1.5; stroke: #000000" d="M 687,-384 A 5,5 0 0 0 692,-389"/>
    <text font-size="9.03097" style="fill: #000000;text-anchor:middle;font-family: Helvetica, Arial, sans-serif;font-style:normal;font-weight:normal" x="668" y="-391.244">
      <tspan x="668" y="-391.244">Event A</tspan>
    </text>
  </g>
  <g>
    <rect style="fill: #e5e5e5" x="705" y="-404" width="38" height="20"/>
    <path style="fill: #e5e5e5" d="M 705,-404 A 5,5 0 0 0 700,-399 L 705,-399 z"/>
    <path style="fill: #e5e5e5" d="M 748,-399 A 5,5 0 0 0 743,-404 L 743,-399 z"/>
    <rect style="fill: #e5e5e5" x="700" y="-399" width="48" height="10"/>
    <path style="fill: #e5e5e5" d="M 700,-389 A 5,5 0 0 0 705,-384 L 705,-389 z"/>
    <path style="fill: #e5e5e5" d="M 743,-384 A 5,5 0 0 0 748,-389 L 743,-389 z"/>
    <line style="fill: none; fill-opacity:0; stroke-width: 1.5; stroke: #000000" x1="705" y1="-404" x2="743" y2="-404"/>
    <line style="fill: none; fill-opacity:0; stroke-width: 1.5; stroke: #000000" x1="705" y1="-384" x2="743" y2="-384"/>
    <path style="fill: none; fill-opacity:0; stroke-width: 1.5; stroke: #000000" d="M 705,-404 A 5,5 0 0 0 700,-399"/>
    <path style="fill: none; fill-opacity:0; stroke-width: 1.5; stroke: #000000" d="M 748,-399 A 5,5 0 0 0 743,-404"/>
    <line style="fill: none; fill-opacity:0; stroke-width: 1.5; stroke: #000000" x1="700" y1="-399" x2="700" y2="-389"/>
    <line style="fill: none; fill-opacity:0; stroke-width: 1.5; stroke: #000000" x1="748" y1="-399" x2="748" y2="-389"/>
    <path style="fill: none; fill-opacity:0; stroke-width: 1.5; stroke: #000000" d="M 700,-389 A 5,5 0 0 0 705,-384"/>
    <path style="fill: none; fill-opacity:0; stroke-width: 1.5; stroke: #000000" d="M 743,-384 A 5,5 0 0 0 748,-389"/>
    <text font-size="9.03097" style="fill: #000000;text-anchor:middle;font-family: Helvetica, Arial, sans-serif;font-style:normal;font-weight:normal" x="724" y="-391.244">
      <tspan x="724" y="-391.244">Event B</tspan>
    </text>
  </g>
  <g>
    <rect style="fill: #c7f4c7" x="677" y="-376" width="38" height="20"/>
    <path style="fill: #c7f4c7" d="M 677,-376 A 5,5 0 0 0 672,-371 L 677,-371 z"/>
    <path style="fill: #c7f4c7" d="M 720,-371 A 5,5 0 0 0 715,-376 L 715,-371 z"/>
    <rect style="fill: #c7f4c7" x="672" y="-371" width="48" height="10"/>
    <path style="fill: #c7f4c7" d="M 672,-361 A 5,5 0 0 0 677,-356 L 677,-361 z"/>
    <path style="fill: #c7f4c7" d="M 715,-356 A 5,5 0 0 0 720,-361 L 715,-361 z"/>
    <line style="fill: none; fill-opacity:0; stroke-width: 1.5; stroke: #000000" x1="677" y1="-376" x2="715" y2="-376"/>
    <line style="fill: none; fill-opacity:0; stroke-width: 1.5; stroke: #000000" x1="677" y1="-356" x2="715" y2="-356"/>
    <path style="fill: none; fill-opacity:0; stroke-width: 1.5; stroke: #000000" d="M 677,-376 A 5,5 0 0 0 672,-371"/>
    <path style="fill: none; fill-opacity:0; stroke-width: 1.5; stroke: #000000" d="M 720,-371 A 5,5 0 0 0 715,-376"/>
    <line style="fill: none; fill-opacity:0; stroke-width: 1.5; stroke: #000000" x1="672" y1="-371" x2="672" y2="-361"/>
    <line style="fill: none; fill-opacity:0; stroke-width: 1.5; stroke: #000000" x1="720" y1="-371" x2="720" y2="-361"/>
    <path style="fill: none; fill-opacity:0; stroke-width: 1.5; stroke: #000000" d="M 672,-361 A 5,5 0 0 0 677,-356"/>
    <path style="fill: none; fill-opacity:0; stroke-width: 1.5; stroke: #000000" d="M 715,-356 A 5,5 0 0 0 720,-361"/>
    <text font-size="9.03097" style="fill: #000000;text-anchor:middle;font-family: Helvetica, Arial, sans-serif;font-style:normal;font-weight:normal" x="696" y="-363.244">
      <tspan x="696" y="-363.244">Event C</tspan>
    </text>
  </g>
  <g>
    <rect style="fill: #e5e5e5" x="705" y="-288" width="38" height="20"/>
    <path style="fill: #e5e5e5" d="M 705,-288 A 5,5 0 0 0 700,-283 L 705,-283 z"/>
    <path style="fill: #e5e5e5" d="M 748,-283 A 5,5 0 0 0 743,-288 L 743,-283 z"/>
    <rect style="fill: #e5e5e5" x="700" y="-283" width="48" height="10"/>
    <path style="fill: #e5e5e5" d="M 700,-273 A 5,5 0 0 0 705,-268 L 705,-273 z"/>
    <path style="fill: #e5e5e5" d="M 743,-268 A 5,5 0 0 0 748,-273 L 743,-273 z"/>
    <line style="fill: none; fill-opacity:0; stroke-width: 1.5; stroke: #000000" x1="705" y1="-288" x2="743" y2="-288"/>
    <line style="fill: none; fill-opacity:0; stroke-width: 1.5; stroke: #000000" x1="705" y1="-268" x2="743" y2="-268"/>
    <path style="fill: none; fill-opacity:0; stroke-width: 1.5; stroke: #000000" d="M 705,-288 A 5,5 0 0 0 700,-283"/>
    <path style="fill: none; fill-opacity:0; stroke-width: 1.5; stroke: #000000" d="M 748,-283 A 5,5 0 0 0 743,-288"/>
    <line style="fill: none; fill-opacity:0; stroke-width: 1.5; stroke: #000000" x1="700" y1="-283" x2="700" y2="-273"/>
    <line style="fill: none; fill-opacity:0; stroke-width: 1.5; stroke: #000000" x1="748" y1="-283" x2="748" y2="-273"/>
    <path style="fill: none; fill-opacity:0; stroke-width: 1.5; stroke: #000000" d="M 700,-273 A 5,5 0 0 0 705,-268"/>
    <path style="fill: none; fill-opacity:0; stroke-width: 1.5; stroke: #000000" d="M 743,-268 A 5,5 0 0 0 748,-273"/>
    <text font-size="9.03097" style="fill: #000000;text-anchor:middle;font-family: Helvetica, Arial, sans-serif;font-style:normal;font-weight:normal" x="724" y="-275.244">
      <tspan x="724" y="-275.244">Event E</tspan>
    </text>
  </g>
  <g>
    <rect style="fill: #c7f4c7" x="649" y="-316" width="38" height="20"/>
    <path style="fill: #c7f4c7" d="M 649,-316 A 5,5 0 0 0 644,-311 L 649,-311 z"/>
    <path style="fill: #c7f4c7" d="M 692,-311 A 5,5 0 0 0 687,-316 L 687,-311 z"/>
    <rect style="fill: #c7f4c7" x="644" y="-311" width="48" height="10"/>
    <path style="fill: #c7f4c7" d="M 644,-301 A 5,5 0 0 0 649,-296 L 649,-301 z"/>
    <path style="fill: #c7f4c7" d="M 687,-296 A 5,5 0 0 0 692,-301 L 687,-301 z"/>
    <line style="fill: none; fill-opacity:0; stroke-width: 1.5; stroke: #000000" x1="649" y1="-316" x2="687" y2="-316"/>
    <line style="fill: none; fill-opacity:0; stroke-width: 1.5; stroke: #000000" x1="649" y1="-296" x2="687" y2="-296"/>
    <path style="fill: none; fill-opacity:0; stroke-width: 1.5; stroke: #000000" d="M 649,-316 A 5,5 0 0 0 644,-311"/>
    <path style="fill: none; fill-opacity:0; stroke-width: 1.5; stroke: #000000" d="M 692,-311 A 5,5 0 0 0 687,-316"/>
    <line style="fill: none; fill-opacity:0; stroke-width: 1.5; stroke: #000000" x1="644" y1="-311" x2="644" y2="-301"/>
    <line style="fill: none; fill-opacity:0; stroke-width: 1.5; stroke: #000000" x1="692" y1="-311" x2="692" y2="-301"/>
    <path style="fill: none; fill-opacity:0; stroke-width: 1.5; stroke: #000000" d="M 644,-301 A 5,5 0 0 0 649,-296"/>
    <path style="fill: none; fill-opacity:0; stroke-width: 1.5; stroke: #000000" d="M 687,-296 A 5,5 0 0 0 692,-301"/>
    <text font-size="9.03097" style="fill: #000000;text-anchor:middle;font-family: Helvetica, Arial, sans-serif;font-style:normal;font-weight:normal" x="668" y="-303.244">
      <tspan x="668" y="-303.244">Event B</tspan>
    </text>
  </g>
  <g>
    <rect style="fill: #c7f4c7" x="705" y="-316" width="38" height="20"/>
    <path style="fill: #c7f4c7" d="M 705,-316 A 5,5 0 0 0 700,-311 L 705,-311 z"/>
    <path style="fill: #c7f4c7" d="M 748,-311 A 5,5 0 0 0 743,-316 L 743,-311 z"/>
    <rect style="fill: #c7f4c7" x="700" y="-311" width="48" height="10"/>
    <path style="fill: #c7f4c7" d="M 700,-301 A 5,5 0 0 0 705,-296 L 705,-301 z"/>
    <path style="fill: #c7f4c7" d="M 743,-296 A 5,5 0 0 0 748,-301 L 743,-301 z"/>
    <line style="fill: none; fill-opacity:0; stroke-width: 1.5; stroke: #000000" x1="705" y1="-316" x2="743" y2="-316"/>
    <line style="fill: none; fill-opacity:0; stroke-width: 1.5; stroke: #000000" x1="705" y1="-296" x2="743" y2="-296"/>
    <path style="fill: none; fill-opacity:0; stroke-width: 1.5; stroke: #000000" d="M 705,-316 A 5,5 0 0 0 700,-311"/>
    <path style="fill: none; fill-opacity:0; stroke-width: 1.5; stroke: #000000" d="M 748,-311 A 5,5 0 0 0 743,-316"/>
    <line style="fill: none; fill-opacity:0; stroke-width: 1.5; stroke: #000000" x1="700" y1="-311" x2="700" y2="-301"/>
    <line style="fill: none; fill-opacity:0; stroke-width: 1.5; stroke: #000000" x1="748" y1="-311" x2="748" y2="-301"/>
    <path style="fill: none; fill-opacity:0; stroke-width: 1.5; stroke: #000000" d="M 700,-301 A 5,5 0 0 0 705,-296"/>
    <path style="fill: none; fill-opacity:0; stroke-width: 1.5; stroke: #000000" d="M 743,-296 A 5,5 0 0 0 748,-301"/>
    <text font-size="9.03097" style="fill: #000000;text-anchor:middle;font-family: Helvetica, Arial, sans-serif;font-style:normal;font-weight:normal" x="724" y="-303.244">
      <tspan x="724" y="-303.244">Event C</tspan>
    </text>
  </g>
  <g>
    <rect style="fill: #e5e5e5" x="649" y="-288" width="38" height="20"/>
    <path style="fill: #e5e5e5" d="M 649,-288 A 5,5 0 0 0 644,-283 L 649,-283 z"/>
    <path style="fill: #e5e5e5" d="M 692,-283 A 5,5 0 0 0 687,-288 L 687,-283 z"/>
    <rect style="fill: #e5e5e5" x="644" y="-283" width="48" height="10"/>
    <path style="fill: #e5e5e5" d="M 644,-273 A 5,5 0 0 0 649,-268 L 649,-273 z"/>
    <path style="fill: #e5e5e5" d="M 687,-268 A 5,5 0 0 0 692,-273 L 687,-273 z"/>
    <line style="fill: none; fill-opacity:0; stroke-width: 1.5; stroke: #000000" x1="649" y1="-288" x2="687" y2="-288"/>
    <line style="fill: none; fill-opacity:0; stroke-width: 1.5; stroke: #000000" x1="649" y1="-268" x2="687" y2="-268"/>
    <path style="fill: none; fill-opacity:0; stroke-width: 1.5; stroke: #000000" d="M 649,-288 A 5,5 0 0 0 644,-283"/>
    <path style="fill: none; fill-opacity:0; stroke-width: 1.5; stroke: #000000" d="M 692,-283 A 5,5 0 0 0 687,-288"/>
    <line style="fill: none; fill-opacity:0; stroke-width: 1.5; stroke: #000000" x1="644" y1="-283" x2="644" y2="-273"/>
    <line style="fill: none; fill-opacity:0; stroke-width: 1.5; stroke: #000000" x1="692" y1="-283" x2="692" y2="-273"/>
    <path style="fill: none; fill-opacity:0; stroke-width: 1.5; stroke: #000000" d="M 644,-273 A 5,5 0 0 0 649,-268"/>
    <path style="fill: none; fill-opacity:0; stroke-width: 1.5; stroke: #000000" d="M 687,-268 A 5,5 0 0 0 692,-273"/>
    <text font-size="9.03097" style="fill: #000000;text-anchor:middle;font-family: Helvetica, Arial, sans-serif;font-style:normal;font-weight:normal" x="668" y="-275.244">
      <tspan x="668" y="-275.244">Event D</tspan>
    </text>
  </g>
  <g>
    <rect style="fill: #fff3c6" x="777" y="-452" width="126" height="200"/>
    <path style="fill: #fff3c6" d="M 777,-452 A 5,5 0 0 0 772,-447 L 777,-447 z"/>
    <path style="fill: #fff3c6" d="M 908,-447 A 5,5 0 0 0 903,-452 L 903,-447 z"/>
    <rect style="fill: #fff3c6" x="772" y="-447" width="136" height="190"/>
    <path style="fill: #fff3c6" d="M 772,-257 A 5,5 0 0 0 777,-252 L 777,-257 z"/>
    <path style="fill: #fff3c6" d="M 903,-252 A 5,5 0 0 0 908,-257 L 903,-257 z"/>
    <line style="fill: none; fill-opacity:0; stroke-width: 1.5; stroke: #000000" x1="777" y1="-452" x2="903" y2="-452"/>
    <line style="fill: none; fill-opacity:0; stroke-width: 1.5; stroke: #000000" x1="777" y1="-252" x2="903" y2="-252"/>
    <path style="fill: none; fill-opacity:0; stroke-width: 1.5; stroke: #000000" d="M 777,-452 A 5,5 0 0 0 772,-447"/>
    <path style="fill: none; fill-opacity:0; stroke-width: 1.5; stroke: #000000" d="M 908,-447 A 5,5 0 0 0 903,-452"/>
    <line style="fill: none; fill-opacity:0; stroke-width: 1.5; stroke: #000000" x1="772" y1="-447" x2="772" y2="-257"/>
    <line style="fill: none; fill-opacity:0; stroke-width: 1.5; stroke: #000000" x1="908" y1="-447" x2="908" y2="-257"/>
    <path style="fill: none; fill-opacity:0; stroke-width: 1.5; stroke: #000000" d="M 772,-257 A 5,5 0 0 0 777,-252"/>
    <path style="fill: none; fill-opacity:0; stroke-width: 1.5; stroke: #000000" d="M 903,-252 A 5,5 0 0 0 908,-257"/>
    <text font-size="12.7998" style="fill: #000000;text-anchor:middle;font-family: Helvetica, Arial, sans-serif;font-style:normal;font-weight:normal" x="840" y="-348.1">
      <tspan x="840" y="-348.1"></tspan>
    </text>
  </g>
  <g>
    <rect style="fill: #ffffff" x="785" y="-428" width="110" height="52"/>
    <path style="fill: #ffffff" d="M 785,-428 A 5,5 0 0 0 780,-423 L 785,-423 z"/>
    <path style="fill: #ffffff" d="M 900,-423 A 5,5 0 0 0 895,-428 L 895,-423 z"/>
    <rect style="fill: #ffffff" x="780" y="-423" width="120" height="42"/>
    <path style="fill: #ffffff" d="M 780,-381 A 5,5 0 0 0 785,-376 L 785,-381 z"/>
    <path style="fill: #ffffff" d="M 895,-376 A 5,5 0 0 0 900,-381 L 895,-381 z"/>
    <line style="fill: none; fill-opacity:0; stroke-width: 1.5; stroke: #000000" x1="785" y1="-428" x2="895" y2="-428"/>
    <line style="fill: none; fill-opacity:0; stroke-width: 1.5; stroke: #000000" x1="785" y1="-376" x2="895" y2="-376"/>
    <path style="fill: none; fill-opacity:0; stroke-width: 1.5; stroke: #000000" d="M 785,-428 A 5,5 0 0 0 780,-423"/>
    <path style="fill: none; fill-opacity:0; stroke-width: 1.5; stroke: #000000" d="M 900,-423 A 5,5 0 0 0 895,-428"/>
    <line style="fill: none; fill-opacity:0; stroke-width: 1.5; stroke: #000000" x1="780" y1="-423" x2="780" y2="-381"/>
    <line style="fill: none; fill-opacity:0; stroke-width: 1.5; stroke: #000000" x1="900" y1="-423" x2="900" y2="-381"/>
    <path style="fill: none; fill-opacity:0; stroke-width: 1.5; stroke: #000000" d="M 780,-381 A 5,5 0 0 0 785,-376"/>
    <path style="fill: none; fill-opacity:0; stroke-width: 1.5; stroke: #000000" d="M 895,-376 A 5,5 0 0 0 900,-381"/>
    <text font-size="12.7998" style="fill: #000000;text-anchor:middle;font-family: Helvetica, Arial, sans-serif;font-style:normal;font-weight:normal" x="840" y="-398.1">
      <tspan x="840" y="-398.1"></tspan>
    </text>
  </g>
  <text font-size="9.03097" style="fill: #000000;text-anchor:middle;font-family: Helvetica, Arial, sans-serif;font-style:normal;font-weight:normal" x="840" y="-436.875">
    <tspan x="840" y="-436.875">User space domain</tspan>
  </text>
  <text font-size="9.03111" style="fill: #000000;text-anchor:middle;font-family: Helvetica, Arial, sans-serif;font-style:italic;font-weight:normal" x="840" y="-412.875">
    <tspan x="840" y="-412.875">Channel</tspan>
  </text>
  <g>
    <rect style="fill: #ffffff" x="785" y="-368" width="110" height="108"/>
    <path style="fill: #ffffff" d="M 785,-368 A 5,5 0 0 0 780,-363 L 785,-363 z"/>
    <path style="fill: #ffffff" d="M 900,-363 A 5,5 0 0 0 895,-368 L 895,-363 z"/>
    <rect style="fill: #ffffff" x="780" y="-363" width="120" height="98"/>
    <path style="fill: #ffffff" d="M 780,-265 A 5,5 0 0 0 785,-260 L 785,-265 z"/>
    <path style="fill: #ffffff" d="M 895,-260 A 5,5 0 0 0 900,-265 L 895,-265 z"/>
    <line style="fill: none; fill-opacity:0; stroke-width: 1.5; stroke: #000000" x1="785" y1="-368" x2="895" y2="-368"/>
    <line style="fill: none; fill-opacity:0; stroke-width: 1.5; stroke: #000000" x1="785" y1="-260" x2="895" y2="-260"/>
    <path style="fill: none; fill-opacity:0; stroke-width: 1.5; stroke: #000000" d="M 785,-368 A 5,5 0 0 0 780,-363"/>
    <path style="fill: none; fill-opacity:0; stroke-width: 1.5; stroke: #000000" d="M 900,-363 A 5,5 0 0 0 895,-368"/>
    <line style="fill: none; fill-opacity:0; stroke-width: 1.5; stroke: #000000" x1="780" y1="-363" x2="780" y2="-265"/>
    <line style="fill: none; fill-opacity:0; stroke-width: 1.5; stroke: #000000" x1="900" y1="-363" x2="900" y2="-265"/>
    <path style="fill: none; fill-opacity:0; stroke-width: 1.5; stroke: #000000" d="M 780,-265 A 5,5 0 0 0 785,-260"/>
    <path style="fill: none; fill-opacity:0; stroke-width: 1.5; stroke: #000000" d="M 895,-260 A 5,5 0 0 0 900,-265"/>
    <text font-size="12.7998" style="fill: #000000;text-anchor:middle;font-family: Helvetica, Arial, sans-serif;font-style:normal;font-weight:normal" x="840" y="-310.1">
      <tspan x="840" y="-310.1"></tspan>
    </text>
  </g>
  <text font-size="9.03111" style="fill: #000000;text-anchor:middle;font-family: Helvetica, Arial, sans-serif;font-style:italic;font-weight:normal" x="840" y="-352.875">
    <tspan x="840" y="-352.875">Channel</tspan>
  </text>
  <g>
    <rect style="fill: #c7f4c7" x="849" y="-404" width="38" height="20"/>
    <path style="fill: #c7f4c7" d="M 849,-404 A 5,5 0 0 0 844,-399 L 849,-399 z"/>
    <path style="fill: #c7f4c7" d="M 892,-399 A 5,5 0 0 0 887,-404 L 887,-399 z"/>
    <rect style="fill: #c7f4c7" x="844" y="-399" width="48" height="10"/>
    <path style="fill: #c7f4c7" d="M 844,-389 A 5,5 0 0 0 849,-384 L 849,-389 z"/>
    <path style="fill: #c7f4c7" d="M 887,-384 A 5,5 0 0 0 892,-389 L 887,-389 z"/>
    <line style="fill: none; fill-opacity:0; stroke-width: 1.5; stroke: #000000" x1="849" y1="-404" x2="887" y2="-404"/>
    <line style="fill: none; fill-opacity:0; stroke-width: 1.5; stroke: #000000" x1="849" y1="-384" x2="887" y2="-384"/>
    <path style="fill: none; fill-opacity:0; stroke-width: 1.5; stroke: #000000" d="M 849,-404 A 5,5 0 0 0 844,-399"/>
    <path style="fill: none; fill-opacity:0; stroke-width: 1.5; stroke: #000000" d="M 892,-399 A 5,5 0 0 0 887,-404"/>
    <line style="fill: none; fill-opacity:0; stroke-width: 1.5; stroke: #000000" x1="844" y1="-399" x2="844" y2="-389"/>
    <line style="fill: none; fill-opacity:0; stroke-width: 1.5; stroke: #000000" x1="892" y1="-399" x2="892" y2="-389"/>
    <path style="fill: none; fill-opacity:0; stroke-width: 1.5; stroke: #000000" d="M 844,-389 A 5,5 0 0 0 849,-384"/>
    <path style="fill: none; fill-opacity:0; stroke-width: 1.5; stroke: #000000" d="M 887,-384 A 5,5 0 0 0 892,-389"/>
    <text font-size="9.03097" style="fill: #000000;text-anchor:middle;font-family: Helvetica, Arial, sans-serif;font-style:normal;font-weight:normal" x="868" y="-391.244">
      <tspan x="868" y="-391.244">Event 2</tspan>
    </text>
  </g>
  <g>
    <rect style="fill: #e5e5e5" x="793" y="-404" width="38" height="20"/>
    <path style="fill: #e5e5e5" d="M 793,-404 A 5,5 0 0 0 788,-399 L 793,-399 z"/>
    <path style="fill: #e5e5e5" d="M 836,-399 A 5,5 0 0 0 831,-404 L 831,-399 z"/>
    <rect style="fill: #e5e5e5" x="788" y="-399" width="48" height="10"/>
    <path style="fill: #e5e5e5" d="M 788,-389 A 5,5 0 0 0 793,-384 L 793,-389 z"/>
    <path style="fill: #e5e5e5" d="M 831,-384 A 5,5 0 0 0 836,-389 L 831,-389 z"/>
    <line style="fill: none; fill-opacity:0; stroke-width: 1.5; stroke: #000000" x1="793" y1="-404" x2="831" y2="-404"/>
    <line style="fill: none; fill-opacity:0; stroke-width: 1.5; stroke: #000000" x1="793" y1="-384" x2="831" y2="-384"/>
    <path style="fill: none; fill-opacity:0; stroke-width: 1.5; stroke: #000000" d="M 793,-404 A 5,5 0 0 0 788,-399"/>
    <path style="fill: none; fill-opacity:0; stroke-width: 1.5; stroke: #000000" d="M 836,-399 A 5,5 0 0 0 831,-404"/>
    <line style="fill: none; fill-opacity:0; stroke-width: 1.5; stroke: #000000" x1="788" y1="-399" x2="788" y2="-389"/>
    <line style="fill: none; fill-opacity:0; stroke-width: 1.5; stroke: #000000" x1="836" y1="-399" x2="836" y2="-389"/>
    <path style="fill: none; fill-opacity:0; stroke-width: 1.5; stroke: #000000" d="M 788,-389 A 5,5 0 0 0 793,-384"/>
    <path style="fill: none; fill-opacity:0; stroke-width: 1.5; stroke: #000000" d="M 831,-384 A 5,5 0 0 0 836,-389"/>
    <text font-size="9.03097" style="fill: #000000;text-anchor:middle;font-family: Helvetica, Arial, sans-serif;font-style:normal;font-weight:normal" x="812" y="-391.244">
      <tspan x="812" y="-391.244">Event 1</tspan>
    </text>
  </g>
  <g>
    <rect style="fill: #c7f4c7" x="793" y="-344" width="38" height="20"/>
    <path style="fill: #c7f4c7" d="M 793,-344 A 5,5 0 0 0 788,-339 L 793,-339 z"/>
    <path style="fill: #c7f4c7" d="M 836,-339 A 5,5 0 0 0 831,-344 L 831,-339 z"/>
    <rect style="fill: #c7f4c7" x="788" y="-339" width="48" height="10"/>
    <path style="fill: #c7f4c7" d="M 788,-329 A 5,5 0 0 0 793,-324 L 793,-329 z"/>
    <path style="fill: #c7f4c7" d="M 831,-324 A 5,5 0 0 0 836,-329 L 831,-329 z"/>
    <line style="fill: none; fill-opacity:0; stroke-width: 1.5; stroke: #000000" x1="793" y1="-344" x2="831" y2="-344"/>
    <line style="fill: none; fill-opacity:0; stroke-width: 1.5; stroke: #000000" x1="793" y1="-324" x2="831" y2="-324"/>
    <path style="fill: none; fill-opacity:0; stroke-width: 1.5; stroke: #000000" d="M 793,-344 A 5,5 0 0 0 788,-339"/>
    <path style="fill: none; fill-opacity:0; stroke-width: 1.5; stroke: #000000" d="M 836,-339 A 5,5 0 0 0 831,-344"/>
    <line style="fill: none; fill-opacity:0; stroke-width: 1.5; stroke: #000000" x1="788" y1="-339" x2="788" y2="-329"/>
    <line style="fill: none; fill-opacity:0; stroke-width: 1.5; stroke: #000000" x1="836" y1="-339" x2="836" y2="-329"/>
    <path style="fill: none; fill-opacity:0; stroke-width: 1.5; stroke: #000000" d="M 788,-329 A 5,5 0 0 0 793,-324"/>
    <path style="fill: none; fill-opacity:0; stroke-width: 1.5; stroke: #000000" d="M 831,-324 A 5,5 0 0 0 836,-329"/>
    <text font-size="9.03097" style="fill: #000000;text-anchor:middle;font-family: Helvetica, Arial, sans-serif;font-style:normal;font-weight:normal" x="812" y="-331.244">
      <tspan x="812" y="-331.244">Event 2</tspan>
    </text>
  </g>
  <g>
    <rect style="fill: #c7f4c7" x="849" y="-344" width="38" height="20"/>
    <path style="fill: #c7f4c7" d="M 849,-344 A 5,5 0 0 0 844,-339 L 849,-339 z"/>
    <path style="fill: #c7f4c7" d="M 892,-339 A 5,5 0 0 0 887,-344 L 887,-339 z"/>
    <rect style="fill: #c7f4c7" x="844" y="-339" width="48" height="10"/>
    <path style="fill: #c7f4c7" d="M 844,-329 A 5,5 0 0 0 849,-324 L 849,-329 z"/>
    <path style="fill: #c7f4c7" d="M 887,-324 A 5,5 0 0 0 892,-329 L 887,-329 z"/>
    <line style="fill: none; fill-opacity:0; stroke-width: 1.5; stroke: #000000" x1="849" y1="-344" x2="887" y2="-344"/>
    <line style="fill: none; fill-opacity:0; stroke-width: 1.5; stroke: #000000" x1="849" y1="-324" x2="887" y2="-324"/>
    <path style="fill: none; fill-opacity:0; stroke-width: 1.5; stroke: #000000" d="M 849,-344 A 5,5 0 0 0 844,-339"/>
    <path style="fill: none; fill-opacity:0; stroke-width: 1.5; stroke: #000000" d="M 892,-339 A 5,5 0 0 0 887,-344"/>
    <line style="fill: none; fill-opacity:0; stroke-width: 1.5; stroke: #000000" x1="844" y1="-339" x2="844" y2="-329"/>
    <line style="fill: none; fill-opacity:0; stroke-width: 1.5; stroke: #000000" x1="892" y1="-339" x2="892" y2="-329"/>
    <path style="fill: none; fill-opacity:0; stroke-width: 1.5; stroke: #000000" d="M 844,-329 A 5,5 0 0 0 849,-324"/>
    <path style="fill: none; fill-opacity:0; stroke-width: 1.5; stroke: #000000" d="M 887,-324 A 5,5 0 0 0 892,-329"/>
    <text font-size="9.03097" style="fill: #000000;text-anchor:middle;font-family: Helvetica, Arial, sans-serif;font-style:normal;font-weight:normal" x="868" y="-331.244">
      <tspan x="868" y="-331.244">Event 3</tspan>
    </text>
  </g>
  <g>
    <rect style="fill: #e5e5e5" x="793" y="-316" width="38" height="20"/>
    <path style="fill: #e5e5e5" d="M 793,-316 A 5,5 0 0 0 788,-311 L 793,-311 z"/>
    <path style="fill: #e5e5e5" d="M 836,-311 A 5,5 0 0 0 831,-316 L 831,-311 z"/>
    <rect style="fill: #e5e5e5" x="788" y="-311" width="48" height="10"/>
    <path style="fill: #e5e5e5" d="M 788,-301 A 5,5 0 0 0 793,-296 L 793,-301 z"/>
    <path style="fill: #e5e5e5" d="M 831,-296 A 5,5 0 0 0 836,-301 L 831,-301 z"/>
    <line style="fill: none; fill-opacity:0; stroke-width: 1.5; stroke: #000000" x1="793" y1="-316" x2="831" y2="-316"/>
    <line style="fill: none; fill-opacity:0; stroke-width: 1.5; stroke: #000000" x1="793" y1="-296" x2="831" y2="-296"/>
    <path style="fill: none; fill-opacity:0; stroke-width: 1.5; stroke: #000000" d="M 793,-316 A 5,5 0 0 0 788,-311"/>
    <path style="fill: none; fill-opacity:0; stroke-width: 1.5; stroke: #000000" d="M 836,-311 A 5,5 0 0 0 831,-316"/>
    <line style="fill: none; fill-opacity:0; stroke-width: 1.5; stroke: #000000" x1="788" y1="-311" x2="788" y2="-301"/>
    <line style="fill: none; fill-opacity:0; stroke-width: 1.5; stroke: #000000" x1="836" y1="-311" x2="836" y2="-301"/>
    <path style="fill: none; fill-opacity:0; stroke-width: 1.5; stroke: #000000" d="M 788,-301 A 5,5 0 0 0 793,-296"/>
    <path style="fill: none; fill-opacity:0; stroke-width: 1.5; stroke: #000000" d="M 831,-296 A 5,5 0 0 0 836,-301"/>
    <text font-size="9.03097" style="fill: #000000;text-anchor:middle;font-family: Helvetica, Arial, sans-serif;font-style:normal;font-weight:normal" x="812" y="-303.244">
      <tspan x="812" y="-303.244">Event 4</tspan>
    </text>
  </g>
  <g>
    <rect style="fill: #e5e5e5" x="821" y="-288" width="38" height="20"/>
    <path style="fill: #e5e5e5" d="M 821,-288 A 5,5 0 0 0 816,-283 L 821,-283 z"/>
    <path style="fill: #e5e5e5" d="M 864,-283 A 5,5 0 0 0 859,-288 L 859,-283 z"/>
    <rect style="fill: #e5e5e5" x="816" y="-283" width="48" height="10"/>
    <path style="fill: #e5e5e5" d="M 816,-273 A 5,5 0 0 0 821,-268 L 821,-273 z"/>
    <path style="fill: #e5e5e5" d="M 859,-268 A 5,5 0 0 0 864,-273 L 859,-273 z"/>
    <line style="fill: none; fill-opacity:0; stroke-width: 1.5; stroke: #000000" x1="821" y1="-288" x2="859" y2="-288"/>
    <line style="fill: none; fill-opacity:0; stroke-width: 1.5; stroke: #000000" x1="821" y1="-268" x2="859" y2="-268"/>
    <path style="fill: none; fill-opacity:0; stroke-width: 1.5; stroke: #000000" d="M 821,-288 A 5,5 0 0 0 816,-283"/>
    <path style="fill: none; fill-opacity:0; stroke-width: 1.5; stroke: #000000" d="M 864,-283 A 5,5 0 0 0 859,-288"/>
    <line style="fill: none; fill-opacity:0; stroke-width: 1.5; stroke: #000000" x1="816" y1="-283" x2="816" y2="-273"/>
    <line style="fill: none; fill-opacity:0; stroke-width: 1.5; stroke: #000000" x1="864" y1="-283" x2="864" y2="-273"/>
    <path style="fill: none; fill-opacity:0; stroke-width: 1.5; stroke: #000000" d="M 816,-273 A 5,5 0 0 0 821,-268"/>
    <path style="fill: none; fill-opacity:0; stroke-width: 1.5; stroke: #000000" d="M 859,-268 A 5,5 0 0 0 864,-273"/>
    <text font-size="9.03097" style="fill: #000000;text-anchor:middle;font-family: Helvetica, Arial, sans-serif;font-style:normal;font-weight:normal" x="840" y="-275.244">
      <tspan x="840" y="-275.244">Event 6</tspan>
    </text>
  </g>
  <g>
    <rect style="fill: #c7f4c7" x="849" y="-316" width="38" height="20"/>
    <path style="fill: #c7f4c7" d="M 849,-316 A 5,5 0 0 0 844,-311 L 849,-311 z"/>
    <path style="fill: #c7f4c7" d="M 892,-311 A 5,5 0 0 0 887,-316 L 887,-311 z"/>
    <rect style="fill: #c7f4c7" x="844" y="-311" width="48" height="10"/>
    <path style="fill: #c7f4c7" d="M 844,-301 A 5,5 0 0 0 849,-296 L 849,-301 z"/>
    <path style="fill: #c7f4c7" d="M 887,-296 A 5,5 0 0 0 892,-301 L 887,-301 z"/>
    <line style="fill: none; fill-opacity:0; stroke-width: 1.5; stroke: #000000" x1="849" y1="-316" x2="887" y2="-316"/>
    <line style="fill: none; fill-opacity:0; stroke-width: 1.5; stroke: #000000" x1="849" y1="-296" x2="887" y2="-296"/>
    <path style="fill: none; fill-opacity:0; stroke-width: 1.5; stroke: #000000" d="M 849,-316 A 5,5 0 0 0 844,-311"/>
    <path style="fill: none; fill-opacity:0; stroke-width: 1.5; stroke: #000000" d="M 892,-311 A 5,5 0 0 0 887,-316"/>
    <line style="fill: none; fill-opacity:0; stroke-width: 1.5; stroke: #000000" x1="844" y1="-311" x2="844" y2="-301"/>
    <line style="fill: none; fill-opacity:0; stroke-width: 1.5; stroke: #000000" x1="892" y1="-311" x2="892" y2="-301"/>
    <path style="fill: none; fill-opacity:0; stroke-width: 1.5; stroke: #000000" d="M 844,-301 A 5,5 0 0 0 849,-296"/>
    <path style="fill: none; fill-opacity:0; stroke-width: 1.5; stroke: #000000" d="M 887,-296 A 5,5 0 0 0 892,-301"/>
    <text font-size="9.03097" style="fill: #000000;text-anchor:middle;font-family: Helvetica, Arial, sans-serif;font-style:normal;font-weight:normal" x="868" y="-303.244">
      <tspan x="868" y="-303.244">Event 5</tspan>
    </text>
  </g>
</svg>
