<?xml version="1.0" encoding="UTF-8" standalone="no"?>
<!DOCTYPE svg PUBLIC "-//W3C//DTD SVG 1.0//EN" "http://www.w3.org/TR/2001/PR-SVG-20010719/DTD/svg10.dtd">
<svg width="18cm" height="9cm" viewBox="1208 -442 345 163" xmlns="http://www.w3.org/2000/svg" xmlns:xlink="http://www.w3.org/1999/xlink">
  <g>
    <rect style="fill: #c6ebff" x="1325" y="-440" width="110" height="80"/>
    <path style="fill: #c6ebff" d="M 1325,-440 A 5,5 0 0 0 1320,-435 L 1325,-435 z"/>
    <path style="fill: #c6ebff" d="M 1440,-435 A 5,5 0 0 0 1435,-440 L 1435,-435 z"/>
    <rect style="fill: #c6ebff" x="1320" y="-435" width="120" height="70"/>
    <path style="fill: #c6ebff" d="M 1320,-365 A 5,5 0 0 0 1325,-360 L 1325,-365 z"/>
    <path style="fill: #c6ebff" d="M 1435,-360 A 5,5 0 0 0 1440,-365 L 1435,-365 z"/>
    <line style="fill: none; fill-opacity:0; stroke-width: 2; stroke: #000000" x1="1325" y1="-440" x2="1435" y2="-440"/>
    <line style="fill: none; fill-opacity:0; stroke-width: 2; stroke: #000000" x1="1325" y1="-360" x2="1435" y2="-360"/>
    <path style="fill: none; fill-opacity:0; stroke-width: 2; stroke: #000000" d="M 1325,-440 A 5,5 0 0 0 1320,-435"/>
    <path style="fill: none; fill-opacity:0; stroke-width: 2; stroke: #000000" d="M 1440,-435 A 5,5 0 0 0 1435,-440"/>
    <line style="fill: none; fill-opacity:0; stroke-width: 2; stroke: #000000" x1="1320" y1="-435" x2="1320" y2="-365"/>
    <line style="fill: none; fill-opacity:0; stroke-width: 2; stroke: #000000" x1="1440" y1="-435" x2="1440" y2="-365"/>
    <path style="fill: none; fill-opacity:0; stroke-width: 2; stroke: #000000" d="M 1320,-365 A 5,5 0 0 0 1325,-360"/>
    <path style="fill: none; fill-opacity:0; stroke-width: 2; stroke: #000000" d="M 1435,-360 A 5,5 0 0 0 1440,-365"/>
    <text font-size="12.8" style="fill: #000000;text-anchor:middle;font-family: Helvetica, Arial, sans-serif;font-style:normal;font-weight:normal" x="1380" y="-396.1">
      <tspan x="1380" y="-396.1"></tspan>
    </text>
  </g>
  <text font-size="9.03111" style="fill: #000000;text-anchor:middle;font-family: Helvetica, Arial, sans-serif;font-style:normal;font-weight:normal" x="1380" y="-424.875">
    <tspan x="1380" y="-424.875">Relay daemon</tspan>
  </text>
  <g>
    <rect style="fill: #c6ebff" x="1215" y="-424" width="52" height="36"/>
    <path style="fill: #c6ebff" d="M 1215,-424 A 5,5 0 0 0 1210,-419 L 1215,-419 z"/>
    <path style="fill: #c6ebff" d="M 1272,-419 A 5,5 0 0 0 1267,-424 L 1267,-419 z"/>
    <rect style="fill: #c6ebff" x="1210" y="-419" width="62" height="26"/>
    <path style="fill: #c6ebff" d="M 1210,-393 A 5,5 0 0 0 1215,-388 L 1215,-393 z"/>
    <path style="fill: #c6ebff" d="M 1267,-388 A 5,5 0 0 0 1272,-393 L 1267,-393 z"/>
    <line style="fill: none; fill-opacity:0; stroke-width: 2; stroke: #000000" x1="1215" y1="-424" x2="1267" y2="-424"/>
    <line style="fill: none; fill-opacity:0; stroke-width: 2; stroke: #000000" x1="1215" y1="-388" x2="1267" y2="-388"/>
    <path style="fill: none; fill-opacity:0; stroke-width: 2; stroke: #000000" d="M 1215,-424 A 5,5 0 0 0 1210,-419"/>
    <path style="fill: none; fill-opacity:0; stroke-width: 2; stroke: #000000" d="M 1272,-419 A 5,5 0 0 0 1267,-424"/>
    <line style="fill: none; fill-opacity:0; stroke-width: 2; stroke: #000000" x1="1210" y1="-419" x2="1210" y2="-393"/>
    <line style="fill: none; fill-opacity:0; stroke-width: 2; stroke: #000000" x1="1272" y1="-419" x2="1272" y2="-393"/>
    <path style="fill: none; fill-opacity:0; stroke-width: 2; stroke: #000000" d="M 1210,-393 A 5,5 0 0 0 1215,-388"/>
    <path style="fill: none; fill-opacity:0; stroke-width: 2; stroke: #000000" d="M 1267,-388 A 5,5 0 0 0 1272,-393"/>
    <text font-size="9.03111" style="fill: #000000;text-anchor:middle;font-family: Helvetica, Arial, sans-serif;font-style:normal;font-weight:normal" x="1241" y="-408.889">
      <tspan x="1241" y="-408.889">Consumer</tspan>
      <tspan x="1241" y="-397.6">daemon</tspan>
    </text>
  </g>
  <g>
    <line style="fill: none; fill-opacity:0; stroke-width: 2; stroke: #000000" x1="1272" y1="-406" x2="1340.26" y2="-406"/>
    <polygon style="fill: #000000" points="1347.76,-406 1337.76,-401 1340.26,-406 1337.76,-411 "/>
    <polygon style="fill: none; fill-opacity:0; stroke-width: 2; stroke: #000000" points="1347.76,-406 1337.76,-401 1340.26,-406 1337.76,-411 "/>
  </g>
  <text font-size="7.90222" style="fill: #000000;text-anchor:middle;font-family: Helvetica, Arial, sans-serif;font-style:normal;font-weight:normal" x="1296" y="-409.85">
    <tspan x="1296" y="-409.85">Events</tspan>
  </text>
  <g>
    <line style="fill: none; fill-opacity:0; stroke-width: 2; stroke: #000000" x1="1410" y1="-406" x2="1500.26" y2="-406"/>
    <polygon style="fill: #000000" points="1507.76,-406 1497.76,-401 1500.26,-406 1497.76,-411 "/>
    <polygon style="fill: none; fill-opacity:0; stroke-width: 2; stroke: #000000" points="1507.76,-406 1497.76,-401 1500.26,-406 1497.76,-411 "/>
  </g>
  <g>
    <path style="fill: #ffffff" d="M 1510 -426.333 C 1518.57,-433.583 1522.86,-436 1531.42,-436 C 1540,-436 1544.28,-433.583 1552.85,-426.333 L 1552.85,-387.667 C 1544.28,-380.417 1540,-378 1531.42,-378 C 1522.86,-378 1518.57,-380.417 1510,-387.667 L 1510,-426.333z"/>
    <path style="fill: none; fill-opacity:0; stroke-width: 2; stroke: #000000" d="M 1510 -426.333 C 1518.57,-433.583 1522.86,-436 1531.42,-436 C 1540,-436 1544.28,-433.583 1552.85,-426.333 L 1552.85,-387.667 C 1544.28,-380.417 1540,-378 1531.42,-378 C 1522.86,-378 1518.57,-380.417 1510,-387.667 L 1510,-426.333"/>
    <path style="fill: none; fill-opacity:0; stroke-width: 2; stroke: #000000" d="M 1510 -426.333 C 1518.57,-419.083 1522.86,-416.667 1531.42,-416.667 C 1540,-416.667 1544.28,-419.083 1552.85,-426.333"/>
    <text font-size="9.03111" style="fill: #000000;text-anchor:middle;font-family: Helvetica, Arial, sans-serif;font-style:normal;font-weight:normal" x="1531.42" y="-404.989">
      <tspan x="1531.42" y="-404.989">CTF</tspan>
      <tspan x="1531.42" y="-393.7">traces</tspan>
    </text>
  </g>
  <g>
    <rect style="fill: #b9e29e" x="1337" y="-308" width="86" height="28"/>
    <path style="fill: #b9e29e" d="M 1337,-308 A 5,5 0 0 0 1332,-303 L 1337,-303 z"/>
    <path style="fill: #b9e29e" d="M 1428,-303 A 5,5 0 0 0 1423,-308 L 1423,-303 z"/>
    <rect style="fill: #b9e29e" x="1332" y="-303" width="96" height="18"/>
    <path style="fill: #b9e29e" d="M 1332,-285 A 5,5 0 0 0 1337,-280 L 1337,-285 z"/>
    <path style="fill: #b9e29e" d="M 1423,-280 A 5,5 0 0 0 1428,-285 L 1423,-285 z"/>
    <line style="fill: none; fill-opacity:0; stroke-width: 2; stroke: #000000" x1="1337" y1="-308" x2="1423" y2="-308"/>
    <line style="fill: none; fill-opacity:0; stroke-width: 2; stroke: #000000" x1="1337" y1="-280" x2="1423" y2="-280"/>
    <path style="fill: none; fill-opacity:0; stroke-width: 2; stroke: #000000" d="M 1337,-308 A 5,5 0 0 0 1332,-303"/>
    <path style="fill: none; fill-opacity:0; stroke-width: 2; stroke: #000000" d="M 1428,-303 A 5,5 0 0 0 1423,-308"/>
    <line style="fill: none; fill-opacity:0; stroke-width: 2; stroke: #000000" x1="1332" y1="-303" x2="1332" y2="-285"/>
    <line style="fill: none; fill-opacity:0; stroke-width: 2; stroke: #000000" x1="1428" y1="-303" x2="1428" y2="-285"/>
    <path style="fill: none; fill-opacity:0; stroke-width: 2; stroke: #000000" d="M 1332,-285 A 5,5 0 0 0 1337,-280"/>
    <path style="fill: none; fill-opacity:0; stroke-width: 2; stroke: #000000" d="M 1423,-280 A 5,5 0 0 0 1428,-285"/>
    <text font-size="9.03111" style="fill: #000000;text-anchor:middle;font-family: Helvetica, Arial, sans-serif;font-style:normal;font-weight:normal" x="1380" y="-291.244">
      <tspan x="1380" y="-291.244">Live viewer</tspan>
    </text>
  </g>
  <g>
    <line style="fill: none; fill-opacity:0; stroke-width: 2; stroke: #000000" x1="1380" y1="-376" x2="1380" y2="-317.736"/>
    <polygon style="fill: #000000" points="1380,-310.236 1375,-320.236 1380,-317.736 1385,-320.236 "/>
    <polygon style="fill: none; fill-opacity:0; stroke-width: 2; stroke: #000000" points="1380,-310.236 1375,-320.236 1380,-317.736 1385,-320.236 "/>
  </g>
  <g>
    <polygon style="fill: #ffa529" points="1350,-416 1370,-416 1410,-416 1410,-396 1390,-396 1390,-376 1370,-376 1370,-396 1350,-396 "/>
    <polygon style="fill: none; fill-opacity:0; stroke-width: 2; stroke: #ffa529" points="1350,-416 1370,-416 1410,-416 1410,-396 1390,-396 1390,-376 1370,-376 1370,-396 1350,-396 "/>
  </g>
  <g>
    <rect style="fill: #ffffff" x="1335.65" y="-349.539" width="88.7" height="19.0778"/>
    <text font-size="7.90222" style="fill: #000000;text-anchor:middle;font-family: Helvetica, Arial, sans-serif;font-style:normal;font-weight:normal" x="1380" y="-342.189">
      <tspan x="1380" y="-342.189">Events over LTTng live</tspan>
      <tspan x="1380" y="-332.311">(TCP)</tspan>
    </text>
  </g>
  <text font-size="7.90222" style="fill: #000000;text-anchor:middle;font-family: Helvetica, Arial, sans-serif;font-style:normal;font-weight:normal" x="1296" y="-396.65">
    <tspan x="1296" y="-396.65">(TCP)</tspan>
  </text>
  <text font-size="7.90222" style="fill: #000000;text-anchor:middle;font-family: Helvetica, Arial, sans-serif;font-style:normal;font-weight:normal" x="1470" y="-409.85">
    <tspan x="1470" y="-409.85">CTF</tspan>
  </text>
  <text font-size="7.90222" style="fill: #000000;text-anchor:middle;font-family: Helvetica, Arial, sans-serif;font-style:normal;font-weight:normal" x="1470" y="-396.65">
    <tspan x="1470" y="-396.65">(local FS)</tspan>
  </text>
</svg>
