<?xml version="1.0" encoding="UTF-8" standalone="no"?>
<!DOCTYPE svg PUBLIC "-//W3C//DTD SVG 1.0//EN" "http://www.w3.org/TR/2001/PR-SVG-20010719/DTD/svg10.dtd">
<svg width="21cm" height="23cm" viewBox="648 -462 405 443" xmlns="http://www.w3.org/2000/svg" xmlns:xlink="http://www.w3.org/1999/xlink">
  <g>
    <rect style="fill: #c6ebff" x="705" y="-460" width="110" height="40"/>
    <path style="fill: #c6ebff" d="M 705,-460 A 5,5 0 0 0 700,-455 L 705,-455 z"/>
    <path style="fill: #c6ebff" d="M 820,-455 A 5,5 0 0 0 815,-460 L 815,-455 z"/>
    <rect style="fill: #c6ebff" x="700" y="-455" width="120" height="30"/>
    <path style="fill: #c6ebff" d="M 700,-425 A 5,5 0 0 0 705,-420 L 705,-425 z"/>
    <path style="fill: #c6ebff" d="M 815,-420 A 5,5 0 0 0 820,-425 L 815,-425 z"/>
    <line style="fill: none; fill-opacity:0; stroke-width: 2; stroke: #000000" x1="705" y1="-460" x2="815" y2="-460"/>
    <line style="fill: none; fill-opacity:0; stroke-width: 2; stroke: #000000" x1="705" y1="-420" x2="815" y2="-420"/>
    <path style="fill: none; fill-opacity:0; stroke-width: 2; stroke: #000000" d="M 705,-460 A 5,5 0 0 0 700,-455"/>
    <path style="fill: none; fill-opacity:0; stroke-width: 2; stroke: #000000" d="M 820,-455 A 5,5 0 0 0 815,-460"/>
    <line style="fill: none; fill-opacity:0; stroke-width: 2; stroke: #000000" x1="700" y1="-455" x2="700" y2="-425"/>
    <line style="fill: none; fill-opacity:0; stroke-width: 2; stroke: #000000" x1="820" y1="-455" x2="820" y2="-425"/>
    <path style="fill: none; fill-opacity:0; stroke-width: 2; stroke: #000000" d="M 700,-425 A 5,5 0 0 0 705,-420"/>
    <path style="fill: none; fill-opacity:0; stroke-width: 2; stroke: #000000" d="M 815,-420 A 5,5 0 0 0 820,-425"/>
    <text font-size="12.8" style="fill: #000000;text-anchor:middle;font-family: Helvetica, Arial, sans-serif;font-style:normal;font-weight:normal" x="760" y="-436.1">
      <tspan x="760" y="-436.1">hello-tp.tp</tspan>
    </text>
  </g>
  <g>
    <path style="fill: #ffe2e7" d="M 717.143 -380 L 802.857,-380 L 820,-360 L 802.857,-340 L 717.143,-340 L 700,-360 L 717.143,-380z"/>
    <path style="fill: none; fill-opacity:0; stroke-width: 2; stroke: #000000" d="M 717.143 -380 L 802.857,-380 L 820,-360 L 802.857,-340 L 717.143,-340 L 700,-360 L 717.143,-380"/>
    <text font-size="12.8" style="fill: #000000;text-anchor:middle;font-family: Helvetica, Arial, sans-serif;font-style:normal;font-weight:normal" x="760" y="-356">
      <tspan x="760" y="-356">lttng-gen-tp</tspan>
    </text>
  </g>
  <g>
    <line style="fill: none; fill-opacity:0; stroke-width: 2; stroke: #000000" x1="760" y1="-420" x2="760" y2="-389.736"/>
    <polygon style="fill: #000000" points="760,-382.236 755,-392.236 760,-389.736 765,-392.236 "/>
    <polygon style="fill: none; fill-opacity:0; stroke-width: 2; stroke: #000000" points="760,-382.236 755,-392.236 760,-389.736 765,-392.236 "/>
  </g>
  <g>
    <rect style="fill: #c9e8c9" x="655" y="-300" width="90" height="40"/>
    <path style="fill: #c9e8c9" d="M 655,-300 A 5,5 0 0 0 650,-295 L 655,-295 z"/>
    <path style="fill: #c9e8c9" d="M 750,-295 A 5,5 0 0 0 745,-300 L 745,-295 z"/>
    <rect style="fill: #c9e8c9" x="650" y="-295" width="100" height="30"/>
    <path style="fill: #c9e8c9" d="M 650,-265 A 5,5 0 0 0 655,-260 L 655,-265 z"/>
    <path style="fill: #c9e8c9" d="M 745,-260 A 5,5 0 0 0 750,-265 L 745,-265 z"/>
    <line style="fill: none; fill-opacity:0; stroke-width: 2; stroke: #000000" x1="655" y1="-300" x2="745" y2="-300"/>
    <line style="fill: none; fill-opacity:0; stroke-width: 2; stroke: #000000" x1="655" y1="-260" x2="745" y2="-260"/>
    <path style="fill: none; fill-opacity:0; stroke-width: 2; stroke: #000000" d="M 655,-300 A 5,5 0 0 0 650,-295"/>
    <path style="fill: none; fill-opacity:0; stroke-width: 2; stroke: #000000" d="M 750,-295 A 5,5 0 0 0 745,-300"/>
    <line style="fill: none; fill-opacity:0; stroke-width: 2; stroke: #000000" x1="650" y1="-295" x2="650" y2="-265"/>
    <line style="fill: none; fill-opacity:0; stroke-width: 2; stroke: #000000" x1="750" y1="-295" x2="750" y2="-265"/>
    <path style="fill: none; fill-opacity:0; stroke-width: 2; stroke: #000000" d="M 650,-265 A 5,5 0 0 0 655,-260"/>
    <path style="fill: none; fill-opacity:0; stroke-width: 2; stroke: #000000" d="M 745,-260 A 5,5 0 0 0 750,-265"/>
    <text font-size="12.8" style="fill: #000000;text-anchor:middle;font-family: Helvetica, Arial, sans-serif;font-style:normal;font-weight:normal" x="700" y="-276.1">
      <tspan x="700" y="-276.1">hello-tp.o</tspan>
    </text>
  </g>
  <g>
    <rect style="fill: #c9e8c9" x="775" y="-300" width="90" height="40"/>
    <path style="fill: #c9e8c9" d="M 775,-300 A 5,5 0 0 0 770,-295 L 775,-295 z"/>
    <path style="fill: #c9e8c9" d="M 870,-295 A 5,5 0 0 0 865,-300 L 865,-295 z"/>
    <rect style="fill: #c9e8c9" x="770" y="-295" width="100" height="30"/>
    <path style="fill: #c9e8c9" d="M 770,-265 A 5,5 0 0 0 775,-260 L 775,-265 z"/>
    <path style="fill: #c9e8c9" d="M 865,-260 A 5,5 0 0 0 870,-265 L 865,-265 z"/>
    <line style="fill: none; fill-opacity:0; stroke-width: 2; stroke: #000000" x1="775" y1="-300" x2="865" y2="-300"/>
    <line style="fill: none; fill-opacity:0; stroke-width: 2; stroke: #000000" x1="775" y1="-260" x2="865" y2="-260"/>
    <path style="fill: none; fill-opacity:0; stroke-width: 2; stroke: #000000" d="M 775,-300 A 5,5 0 0 0 770,-295"/>
    <path style="fill: none; fill-opacity:0; stroke-width: 2; stroke: #000000" d="M 870,-295 A 5,5 0 0 0 865,-300"/>
    <line style="fill: none; fill-opacity:0; stroke-width: 2; stroke: #000000" x1="770" y1="-295" x2="770" y2="-265"/>
    <line style="fill: none; fill-opacity:0; stroke-width: 2; stroke: #000000" x1="870" y1="-295" x2="870" y2="-265"/>
    <path style="fill: none; fill-opacity:0; stroke-width: 2; stroke: #000000" d="M 770,-265 A 5,5 0 0 0 775,-260"/>
    <path style="fill: none; fill-opacity:0; stroke-width: 2; stroke: #000000" d="M 865,-260 A 5,5 0 0 0 870,-265"/>
    <text font-size="12.8" style="fill: #000000;text-anchor:middle;font-family: Helvetica, Arial, sans-serif;font-style:normal;font-weight:normal" x="820" y="-276.1">
      <tspan x="820" y="-276.1">hello-tp.h</tspan>
    </text>
  </g>
  <g>
    <line style="fill: none; fill-opacity:0; stroke-width: 2; stroke: #000000" x1="738.572" y1="-340" x2="706.758" y2="-307.008"/>
    <polygon style="fill: #000000" points="701.552,-301.61 704.894,-312.279 706.758,-307.008 712.093,-305.337 "/>
    <polygon style="fill: none; fill-opacity:0; stroke-width: 2; stroke: #000000" points="701.552,-301.61 704.894,-312.279 706.758,-307.008 712.093,-305.337 "/>
  </g>
  <g>
    <line style="fill: none; fill-opacity:0; stroke-width: 2; stroke: #000000" x1="781.428" y1="-340" x2="813.242" y2="-307.008"/>
    <polygon style="fill: #000000" points="818.448,-301.61 807.907,-305.337 813.242,-307.008 815.106,-312.279 "/>
    <polygon style="fill: none; fill-opacity:0; stroke-width: 2; stroke: #000000" points="818.448,-301.61 807.907,-305.337 813.242,-307.008 815.106,-312.279 "/>
  </g>
  <g>
    <rect style="fill: #c6ebff" x="775" y="-220" width="90" height="40"/>
    <path style="fill: #c6ebff" d="M 775,-220 A 5,5 0 0 0 770,-215 L 775,-215 z"/>
    <path style="fill: #c6ebff" d="M 870,-215 A 5,5 0 0 0 865,-220 L 865,-215 z"/>
    <rect style="fill: #c6ebff" x="770" y="-215" width="100" height="30"/>
    <path style="fill: #c6ebff" d="M 770,-185 A 5,5 0 0 0 775,-180 L 775,-185 z"/>
    <path style="fill: #c6ebff" d="M 865,-180 A 5,5 0 0 0 870,-185 L 865,-185 z"/>
    <line style="fill: none; fill-opacity:0; stroke-width: 2; stroke: #000000" x1="775" y1="-220" x2="865" y2="-220"/>
    <line style="fill: none; fill-opacity:0; stroke-width: 2; stroke: #000000" x1="775" y1="-180" x2="865" y2="-180"/>
    <path style="fill: none; fill-opacity:0; stroke-width: 2; stroke: #000000" d="M 775,-220 A 5,5 0 0 0 770,-215"/>
    <path style="fill: none; fill-opacity:0; stroke-width: 2; stroke: #000000" d="M 870,-215 A 5,5 0 0 0 865,-220"/>
    <line style="fill: none; fill-opacity:0; stroke-width: 2; stroke: #000000" x1="770" y1="-215" x2="770" y2="-185"/>
    <line style="fill: none; fill-opacity:0; stroke-width: 2; stroke: #000000" x1="870" y1="-215" x2="870" y2="-185"/>
    <path style="fill: none; fill-opacity:0; stroke-width: 2; stroke: #000000" d="M 770,-185 A 5,5 0 0 0 775,-180"/>
    <path style="fill: none; fill-opacity:0; stroke-width: 2; stroke: #000000" d="M 865,-180 A 5,5 0 0 0 870,-185"/>
    <text font-size="12.8" style="fill: #000000;text-anchor:middle;font-family: Helvetica, Arial, sans-serif;font-style:normal;font-weight:normal" x="820" y="-196.1">
      <tspan x="820" y="-196.1">hello.c</tspan>
    </text>
  </g>
  <g>
    <line style="fill: none; fill-opacity:0; stroke-width: 2; stroke: #000000" x1="820" y1="-220" x2="820" y2="-255.528"/>
    <polyline style="fill: none; fill-opacity:0; stroke-width: 2; stroke: #000000" points="825,-247.764 820,-257.764 815,-247.764 "/>
  </g>
  <g>
    <rect style="fill: #ffffff" x="799.8" y="-239.479" width="40.4" height="10.55"/>
    <text font-size="9.03111" style="fill: #000000;text-anchor:middle;font-family: Helvetica, Arial, sans-serif;font-style:normal;font-weight:normal" x="820" y="-231.079">
      <tspan x="820" y="-231.079">#include</tspan>
    </text>
  </g>
  <g>
    <path style="fill: #ffe2e7" d="M 717.143 -140 L 802.857,-140 L 820,-120 L 802.857,-100 L 717.143,-100 L 700,-120 L 717.143,-140z"/>
    <path style="fill: none; fill-opacity:0; stroke-width: 2; stroke: #000000" d="M 717.143 -140 L 802.857,-140 L 820,-120 L 802.857,-100 L 717.143,-100 L 700,-120 L 717.143,-140"/>
    <text font-size="12.8" style="fill: #000000;text-anchor:middle;font-family: Helvetica, Arial, sans-serif;font-style:normal;font-weight:normal" x="760" y="-116">
      <tspan x="760" y="-116">gcc/clang</tspan>
    </text>
  </g>
  <g>
    <line style="fill: none; fill-opacity:0; stroke-width: 2; stroke: #000000" x1="700" y1="-260" x2="735.593" y2="-149.269"/>
    <polygon style="fill: #000000" points="737.888,-142.129 730.067,-150.119 735.593,-149.269 739.588,-153.179 "/>
    <polygon style="fill: none; fill-opacity:0; stroke-width: 2; stroke: #000000" points="737.888,-142.129 730.067,-150.119 735.593,-149.269 739.588,-153.179 "/>
  </g>
  <g>
    <line style="fill: none; fill-opacity:0; stroke-width: 2; stroke: #000000" x1="820" y1="-180" x2="788.186" y2="-147.008"/>
    <polygon style="fill: #000000" points="782.98,-141.61 786.322,-152.279 788.186,-147.008 793.521,-145.337 "/>
    <polygon style="fill: none; fill-opacity:0; stroke-width: 2; stroke: #000000" points="782.98,-141.61 786.322,-152.279 788.186,-147.008 793.521,-145.337 "/>
  </g>
  <g>
    <rect style="fill: #c9e8c9" x="705" y="-60" width="110" height="40"/>
    <path style="fill: #c9e8c9" d="M 705,-60 A 5,5 0 0 0 700,-55 L 705,-55 z"/>
    <path style="fill: #c9e8c9" d="M 820,-55 A 5,5 0 0 0 815,-60 L 815,-55 z"/>
    <rect style="fill: #c9e8c9" x="700" y="-55" width="120" height="30"/>
    <path style="fill: #c9e8c9" d="M 700,-25 A 5,5 0 0 0 705,-20 L 705,-25 z"/>
    <path style="fill: #c9e8c9" d="M 815,-20 A 5,5 0 0 0 820,-25 L 815,-25 z"/>
    <line style="fill: none; fill-opacity:0; stroke-width: 2; stroke: #000000" x1="705" y1="-60" x2="815" y2="-60"/>
    <line style="fill: none; fill-opacity:0; stroke-width: 2; stroke: #000000" x1="705" y1="-20" x2="815" y2="-20"/>
    <path style="fill: none; fill-opacity:0; stroke-width: 2; stroke: #000000" d="M 705,-60 A 5,5 0 0 0 700,-55"/>
    <path style="fill: none; fill-opacity:0; stroke-width: 2; stroke: #000000" d="M 820,-55 A 5,5 0 0 0 815,-60"/>
    <line style="fill: none; fill-opacity:0; stroke-width: 2; stroke: #000000" x1="700" y1="-55" x2="700" y2="-25"/>
    <line style="fill: none; fill-opacity:0; stroke-width: 2; stroke: #000000" x1="820" y1="-55" x2="820" y2="-25"/>
    <path style="fill: none; fill-opacity:0; stroke-width: 2; stroke: #000000" d="M 700,-25 A 5,5 0 0 0 705,-20"/>
    <path style="fill: none; fill-opacity:0; stroke-width: 2; stroke: #000000" d="M 815,-20 A 5,5 0 0 0 820,-25"/>
    <text font-size="12.8" style="fill: #000000;text-anchor:middle;font-family: Helvetica, Arial, sans-serif;font-style:normal;font-weight:normal" x="760" y="-36.1">
      <tspan x="760" y="-36.1">hello</tspan>
    </text>
  </g>
  <g>
    <line style="fill: none; fill-opacity:0; stroke-width: 2; stroke: #000000" x1="760" y1="-100" x2="760" y2="-69.7361"/>
    <polygon style="fill: #000000" points="760,-62.2361 755,-72.2361 760,-69.7361 765,-72.2361 "/>
    <polygon style="fill: none; fill-opacity:0; stroke-width: 2; stroke: #000000" points="760,-62.2361 755,-72.2361 760,-69.7361 765,-72.2361 "/>
  </g>
  <g>
    <rect style="fill: none; fill-opacity:0; stroke-width: 2; stroke: #bfbfbf" x="890" y="-460" width="162" height="84"/>
    <text font-size="12.8" style="fill: #000000;text-anchor:middle;font-family: Helvetica, Arial, sans-serif;font-style:normal;font-weight:normal" x="971" y="-414.1">
      <tspan x="971" y="-414.1"></tspan>
    </text>
  </g>
  <g>
    <rect style="fill: #c6ebff" x="902" y="-448" width="20" height="12"/>
    <rect style="fill: none; fill-opacity:0; stroke-width: 2; stroke: #000000" x="902" y="-448" width="20" height="12"/>
    <text font-size="1.6" style="fill: #000000;text-anchor:middle;font-family: Helvetica, Arial, sans-serif;font-style:normal;font-weight:normal" x="912" y="-441.5">
      <tspan x="912" y="-441.5"></tspan>
    </text>
  </g>
  <g>
    <rect style="fill: #c9e8c9" x="902" y="-424" width="20" height="12"/>
    <rect style="fill: none; fill-opacity:0; stroke-width: 2; stroke: #000000" x="902" y="-424" width="20" height="12"/>
    <text font-size="1.6" style="fill: #000000;text-anchor:middle;font-family: Helvetica, Arial, sans-serif;font-style:normal;font-weight:normal" x="912" y="-417.5">
      <tspan x="912" y="-417.5"></tspan>
    </text>
  </g>
  <text font-size="11.2889" style="fill: #000000;text-anchor:start;font-family: Helvetica, Arial, sans-serif;font-style:normal;font-weight:normal" x="934" y="-438.075">
    <tspan x="934" y="-438.075">File written by user</tspan>
  </text>
  <text font-size="11.2889" style="fill: #000000;text-anchor:start;font-family: Helvetica, Arial, sans-serif;font-style:normal;font-weight:normal" x="934" y="-414.075">
    <tspan x="934" y="-414.075">Generated file</tspan>
  </text>
  <text font-size="11.2889" style="fill: #000000;text-anchor:start;font-family: Helvetica, Arial, sans-serif;font-style:normal;font-weight:normal" x="934" y="-390.075">
    <tspan x="934" y="-390.075">Tool</tspan>
  </text>
  <g>
    <path style="fill: #ffe2e7" d="M 904.857 -400 L 919.143,-400 L 922,-394 L 919.143,-388 L 904.857,-388 L 902,-394 L 904.857,-400z"/>
    <path style="fill: none; fill-opacity:0; stroke-width: 2; stroke: #000000" d="M 904.857 -400 L 919.143,-400 L 922,-394 L 919.143,-388 L 904.857,-388 L 902,-394 L 904.857,-400"/>
    <text font-size="1.6" style="fill: #000000;text-anchor:middle;font-family: Helvetica, Arial, sans-serif;font-style:normal;font-weight:normal" x="912" y="-393.5">
      <tspan x="912" y="-393.5"></tspan>
    </text>
  </g>
</svg>
