<?xml version="1.0" encoding="UTF-8" standalone="no"?>
<!DOCTYPE svg PUBLIC "-//W3C//DTD SVG 1.0//EN" "http://www.w3.org/TR/2001/PR-SVG-20010719/DTD/svg10.dtd">
<svg width="20cm" height="28cm" viewBox="878 -642 384 553" xmlns="http://www.w3.org/2000/svg" xmlns:xlink="http://www.w3.org/1999/xlink">
  <g>
    <rect style="fill: #f0f0f0" x="885" y="-640" width="370" height="410"/>
    <path style="fill: #f0f0f0" d="M 885,-640 A 5,5 0 0 0 880,-635 L 885,-635 z"/>
    <path style="fill: #f0f0f0" d="M 1260,-635 A 5,5 0 0 0 1255,-640 L 1255,-635 z"/>
    <rect style="fill: #f0f0f0" x="880" y="-635" width="380" height="400"/>
    <path style="fill: #f0f0f0" d="M 880,-235 A 5,5 0 0 0 885,-230 L 885,-235 z"/>
    <path style="fill: #f0f0f0" d="M 1255,-230 A 5,5 0 0 0 1260,-235 L 1255,-235 z"/>
    <line style="fill: none; fill-opacity:0; stroke-width: 2; stroke: #000000" x1="885" y1="-640" x2="1255" y2="-640"/>
    <line style="fill: none; fill-opacity:0; stroke-width: 2; stroke: #000000" x1="885" y1="-230" x2="1255" y2="-230"/>
    <path style="fill: none; fill-opacity:0; stroke-width: 2; stroke: #000000" d="M 885,-640 A 5,5 0 0 0 880,-635"/>
    <path style="fill: none; fill-opacity:0; stroke-width: 2; stroke: #000000" d="M 1260,-635 A 5,5 0 0 0 1255,-640"/>
    <line style="fill: none; fill-opacity:0; stroke-width: 2; stroke: #000000" x1="880" y1="-635" x2="880" y2="-235"/>
    <line style="fill: none; fill-opacity:0; stroke-width: 2; stroke: #000000" x1="1260" y1="-635" x2="1260" y2="-235"/>
    <path style="fill: none; fill-opacity:0; stroke-width: 2; stroke: #000000" d="M 880,-235 A 5,5 0 0 0 885,-230"/>
    <path style="fill: none; fill-opacity:0; stroke-width: 2; stroke: #000000" d="M 1255,-230 A 5,5 0 0 0 1260,-235"/>
    <text font-size="12.8" style="fill: #000000;text-anchor:middle;font-family:sans-serif;font-style:normal;font-weight:normal" x="1070" y="-431.1">
      <tspan x="1070" y="-431.1"></tspan>
    </text>
  </g>
  <g>
    <rect style="fill: #f0f0f0" x="915" y="-210" width="230" height="120"/>
    <path style="fill: #f0f0f0" d="M 915,-210 A 5,5 0 0 0 910,-205 L 915,-205 z"/>
    <path style="fill: #f0f0f0" d="M 1150,-205 A 5,5 0 0 0 1145,-210 L 1145,-205 z"/>
    <rect style="fill: #f0f0f0" x="910" y="-205" width="240" height="110"/>
    <path style="fill: #f0f0f0" d="M 910,-95 A 5,5 0 0 0 915,-90 L 915,-95 z"/>
    <path style="fill: #f0f0f0" d="M 1145,-90 A 5,5 0 0 0 1150,-95 L 1145,-95 z"/>
    <line style="fill: none; fill-opacity:0; stroke-width: 2; stroke: #000000" x1="915" y1="-210" x2="1145" y2="-210"/>
    <line style="fill: none; fill-opacity:0; stroke-width: 2; stroke: #000000" x1="915" y1="-90" x2="1145" y2="-90"/>
    <path style="fill: none; fill-opacity:0; stroke-width: 2; stroke: #000000" d="M 915,-210 A 5,5 0 0 0 910,-205"/>
    <path style="fill: none; fill-opacity:0; stroke-width: 2; stroke: #000000" d="M 1150,-205 A 5,5 0 0 0 1145,-210"/>
    <line style="fill: none; fill-opacity:0; stroke-width: 2; stroke: #000000" x1="910" y1="-205" x2="910" y2="-95"/>
    <line style="fill: none; fill-opacity:0; stroke-width: 2; stroke: #000000" x1="1150" y1="-205" x2="1150" y2="-95"/>
    <path style="fill: none; fill-opacity:0; stroke-width: 2; stroke: #000000" d="M 910,-95 A 5,5 0 0 0 915,-90"/>
    <path style="fill: none; fill-opacity:0; stroke-width: 2; stroke: #000000" d="M 1145,-90 A 5,5 0 0 0 1150,-95"/>
    <text font-size="12.8" style="fill: #000000;text-anchor:middle;font-family:sans-serif;font-style:normal;font-weight:normal" x="1030" y="-146.1">
      <tspan x="1030" y="-146.1"></tspan>
    </text>
  </g>
  <g>
    <rect style="fill: #fff3c6" x="895" y="-600" width="90" height="60"/>
    <path style="fill: #fff3c6" d="M 895,-600 A 5,5 0 0 0 890,-595 L 895,-595 z"/>
    <path style="fill: #fff3c6" d="M 990,-595 A 5,5 0 0 0 985,-600 L 985,-595 z"/>
    <rect style="fill: #fff3c6" x="890" y="-595" width="100" height="50"/>
    <path style="fill: #fff3c6" d="M 890,-545 A 5,5 0 0 0 895,-540 L 895,-545 z"/>
    <path style="fill: #fff3c6" d="M 985,-540 A 5,5 0 0 0 990,-545 L 985,-545 z"/>
    <line style="fill: none; fill-opacity:0; stroke-width: 2; stroke: #000000" x1="895" y1="-600" x2="985" y2="-600"/>
    <line style="fill: none; fill-opacity:0; stroke-width: 2; stroke: #000000" x1="895" y1="-540" x2="985" y2="-540"/>
    <path style="fill: none; fill-opacity:0; stroke-width: 2; stroke: #000000" d="M 895,-600 A 5,5 0 0 0 890,-595"/>
    <path style="fill: none; fill-opacity:0; stroke-width: 2; stroke: #000000" d="M 990,-595 A 5,5 0 0 0 985,-600"/>
    <line style="fill: none; fill-opacity:0; stroke-width: 2; stroke: #000000" x1="890" y1="-595" x2="890" y2="-545"/>
    <line style="fill: none; fill-opacity:0; stroke-width: 2; stroke: #000000" x1="990" y1="-595" x2="990" y2="-545"/>
    <path style="fill: none; fill-opacity:0; stroke-width: 2; stroke: #000000" d="M 890,-545 A 5,5 0 0 0 895,-540"/>
    <path style="fill: none; fill-opacity:0; stroke-width: 2; stroke: #000000" d="M 985,-540 A 5,5 0 0 0 990,-545"/>
    <text font-size="12.8" style="fill: #000000;text-anchor:middle;font-family:sans-serif;font-style:normal;font-weight:normal" x="940" y="-566.1">
      <tspan x="940" y="-566.1"></tspan>
    </text>
  </g>
  <g>
    <rect style="fill: #ffbf6a" x="905" y="-580" width="70" height="30"/>
    <path style="fill: #ffbf6a" d="M 905,-580 A 5,5 0 0 0 900,-575 L 905,-575 z"/>
    <path style="fill: #ffbf6a" d="M 980,-575 A 5,5 0 0 0 975,-580 L 975,-575 z"/>
    <rect style="fill: #ffbf6a" x="900" y="-575" width="80" height="20"/>
    <path style="fill: #ffbf6a" d="M 900,-555 A 5,5 0 0 0 905,-550 L 905,-555 z"/>
    <path style="fill: #ffbf6a" d="M 975,-550 A 5,5 0 0 0 980,-555 L 975,-555 z"/>
    <line style="fill: none; fill-opacity:0; stroke-width: 2; stroke: #000000" x1="905" y1="-580" x2="975" y2="-580"/>
    <line style="fill: none; fill-opacity:0; stroke-width: 2; stroke: #000000" x1="905" y1="-550" x2="975" y2="-550"/>
    <path style="fill: none; fill-opacity:0; stroke-width: 2; stroke: #000000" d="M 905,-580 A 5,5 0 0 0 900,-575"/>
    <path style="fill: none; fill-opacity:0; stroke-width: 2; stroke: #000000" d="M 980,-575 A 5,5 0 0 0 975,-580"/>
    <line style="fill: none; fill-opacity:0; stroke-width: 2; stroke: #000000" x1="900" y1="-575" x2="900" y2="-555"/>
    <line style="fill: none; fill-opacity:0; stroke-width: 2; stroke: #000000" x1="980" y1="-575" x2="980" y2="-555"/>
    <path style="fill: none; fill-opacity:0; stroke-width: 2; stroke: #000000" d="M 900,-555 A 5,5 0 0 0 905,-550"/>
    <path style="fill: none; fill-opacity:0; stroke-width: 2; stroke: #000000" d="M 975,-550 A 5,5 0 0 0 980,-555"/>
    <text font-size="9.03111" style="fill: #000000;text-anchor:middle;font-family:sans-serif;font-style:normal;font-weight:normal" x="940" y="-562.244">
      <tspan x="940" y="-562.244">TP</tspan>
    </text>
  </g>
  <text font-size="9.03111" style="fill: #000000;text-anchor:middle;font-family:sans-serif;font-style:normal;font-weight:normal" x="940" y="-586.875">
    <tspan x="940" y="-586.875">C/C++ application</tspan>
  </text>
  <g>
    <rect style="fill: #d2edd2" x="895" y="-530" width="90" height="30"/>
    <path style="fill: #d2edd2" d="M 895,-530 A 5,5 0 0 0 890,-525 L 895,-525 z"/>
    <path style="fill: #d2edd2" d="M 990,-525 A 5,5 0 0 0 985,-530 L 985,-525 z"/>
    <rect style="fill: #d2edd2" x="890" y="-525" width="100" height="20"/>
    <path style="fill: #d2edd2" d="M 890,-505 A 5,5 0 0 0 895,-500 L 895,-505 z"/>
    <path style="fill: #d2edd2" d="M 985,-500 A 5,5 0 0 0 990,-505 L 985,-505 z"/>
    <line style="fill: none; fill-opacity:0; stroke-width: 2; stroke: #000000" x1="895" y1="-530" x2="985" y2="-530"/>
    <line style="fill: none; fill-opacity:0; stroke-width: 2; stroke: #000000" x1="895" y1="-500" x2="985" y2="-500"/>
    <path style="fill: none; fill-opacity:0; stroke-width: 2; stroke: #000000" d="M 895,-530 A 5,5 0 0 0 890,-525"/>
    <path style="fill: none; fill-opacity:0; stroke-width: 2; stroke: #000000" d="M 990,-525 A 5,5 0 0 0 985,-530"/>
    <line style="fill: none; fill-opacity:0; stroke-width: 2; stroke: #000000" x1="890" y1="-525" x2="890" y2="-505"/>
    <line style="fill: none; fill-opacity:0; stroke-width: 2; stroke: #000000" x1="990" y1="-525" x2="990" y2="-505"/>
    <path style="fill: none; fill-opacity:0; stroke-width: 2; stroke: #000000" d="M 890,-505 A 5,5 0 0 0 895,-500"/>
    <path style="fill: none; fill-opacity:0; stroke-width: 2; stroke: #000000" d="M 985,-500 A 5,5 0 0 0 990,-505"/>
    <text font-size="9.03111" style="fill: #000000;text-anchor:middle;font-family:sans-serif;font-style:normal;font-weight:normal" x="940" y="-512.244">
      <tspan x="940" y="-512.244">liblttng-ust</tspan>
    </text>
  </g>
  <line style="fill: none; fill-opacity:0; stroke-width: 2; stroke: #000000" x1="940" y1="-540" x2="940" y2="-530"/>
  <g>
    <rect style="fill: #fff3c6" x="1015" y="-600" width="90" height="30"/>
    <path style="fill: #fff3c6" d="M 1015,-600 A 5,5 0 0 0 1010,-595 L 1015,-595 z"/>
    <path style="fill: #fff3c6" d="M 1110,-595 A 5,5 0 0 0 1105,-600 L 1105,-595 z"/>
    <rect style="fill: #fff3c6" x="1010" y="-595" width="100" height="20"/>
    <path style="fill: #fff3c6" d="M 1010,-575 A 5,5 0 0 0 1015,-570 L 1015,-575 z"/>
    <path style="fill: #fff3c6" d="M 1105,-570 A 5,5 0 0 0 1110,-575 L 1105,-575 z"/>
    <line style="fill: none; fill-opacity:0; stroke-width: 2; stroke: #000000" x1="1015" y1="-600" x2="1105" y2="-600"/>
    <line style="fill: none; fill-opacity:0; stroke-width: 2; stroke: #000000" x1="1015" y1="-570" x2="1105" y2="-570"/>
    <path style="fill: none; fill-opacity:0; stroke-width: 2; stroke: #000000" d="M 1015,-600 A 5,5 0 0 0 1010,-595"/>
    <path style="fill: none; fill-opacity:0; stroke-width: 2; stroke: #000000" d="M 1110,-595 A 5,5 0 0 0 1105,-600"/>
    <line style="fill: none; fill-opacity:0; stroke-width: 2; stroke: #000000" x1="1010" y1="-595" x2="1010" y2="-575"/>
    <line style="fill: none; fill-opacity:0; stroke-width: 2; stroke: #000000" x1="1110" y1="-595" x2="1110" y2="-575"/>
    <path style="fill: none; fill-opacity:0; stroke-width: 2; stroke: #000000" d="M 1010,-575 A 5,5 0 0 0 1015,-570"/>
    <path style="fill: none; fill-opacity:0; stroke-width: 2; stroke: #000000" d="M 1105,-570 A 5,5 0 0 0 1110,-575"/>
    <text font-size="9.03111" style="fill: #000000;text-anchor:middle;font-family:sans-serif;font-style:normal;font-weight:normal" x="1060" y="-582.244">
      <tspan x="1060" y="-582.244">Java application</tspan>
    </text>
  </g>
  <g>
    <rect style="fill: #d2edd2" x="1015" y="-480" width="90" height="30"/>
    <path style="fill: #d2edd2" d="M 1015,-480 A 5,5 0 0 0 1010,-475 L 1015,-475 z"/>
    <path style="fill: #d2edd2" d="M 1110,-475 A 5,5 0 0 0 1105,-480 L 1105,-475 z"/>
    <rect style="fill: #d2edd2" x="1010" y="-475" width="100" height="20"/>
    <path style="fill: #d2edd2" d="M 1010,-455 A 5,5 0 0 0 1015,-450 L 1015,-455 z"/>
    <path style="fill: #d2edd2" d="M 1105,-450 A 5,5 0 0 0 1110,-455 L 1105,-455 z"/>
    <line style="fill: none; fill-opacity:0; stroke-width: 2; stroke: #000000" x1="1015" y1="-480" x2="1105" y2="-480"/>
    <line style="fill: none; fill-opacity:0; stroke-width: 2; stroke: #000000" x1="1015" y1="-450" x2="1105" y2="-450"/>
    <path style="fill: none; fill-opacity:0; stroke-width: 2; stroke: #000000" d="M 1015,-480 A 5,5 0 0 0 1010,-475"/>
    <path style="fill: none; fill-opacity:0; stroke-width: 2; stroke: #000000" d="M 1110,-475 A 5,5 0 0 0 1105,-480"/>
    <line style="fill: none; fill-opacity:0; stroke-width: 2; stroke: #000000" x1="1010" y1="-475" x2="1010" y2="-455"/>
    <line style="fill: none; fill-opacity:0; stroke-width: 2; stroke: #000000" x1="1110" y1="-475" x2="1110" y2="-455"/>
    <path style="fill: none; fill-opacity:0; stroke-width: 2; stroke: #000000" d="M 1010,-455 A 5,5 0 0 0 1015,-450"/>
    <path style="fill: none; fill-opacity:0; stroke-width: 2; stroke: #000000" d="M 1105,-450 A 5,5 0 0 0 1110,-455"/>
    <text font-size="9.03111" style="fill: #000000;text-anchor:middle;font-family:sans-serif;font-style:normal;font-weight:normal" x="1060" y="-462.244">
      <tspan x="1060" y="-462.244">liblttng-ust</tspan>
    </text>
  </g>
  <line style="fill: none; fill-opacity:0; stroke-width: 2; stroke: #000000" x1="1060" y1="-490" x2="1060" y2="-480"/>
  <g>
    <rect style="fill: #d2edd2" x="1015" y="-520" width="90" height="30"/>
    <path style="fill: #d2edd2" d="M 1015,-520 A 5,5 0 0 0 1010,-515 L 1015,-515 z"/>
    <path style="fill: #d2edd2" d="M 1110,-515 A 5,5 0 0 0 1105,-520 L 1105,-515 z"/>
    <rect style="fill: #d2edd2" x="1010" y="-515" width="100" height="20"/>
    <path style="fill: #d2edd2" d="M 1010,-495 A 5,5 0 0 0 1015,-490 L 1015,-495 z"/>
    <path style="fill: #d2edd2" d="M 1105,-490 A 5,5 0 0 0 1110,-495 L 1105,-495 z"/>
    <line style="fill: none; fill-opacity:0; stroke-width: 2; stroke: #000000" x1="1015" y1="-520" x2="1105" y2="-520"/>
    <line style="fill: none; fill-opacity:0; stroke-width: 2; stroke: #000000" x1="1015" y1="-490" x2="1105" y2="-490"/>
    <path style="fill: none; fill-opacity:0; stroke-width: 2; stroke: #000000" d="M 1015,-520 A 5,5 0 0 0 1010,-515"/>
    <path style="fill: none; fill-opacity:0; stroke-width: 2; stroke: #000000" d="M 1110,-515 A 5,5 0 0 0 1105,-520"/>
    <line style="fill: none; fill-opacity:0; stroke-width: 2; stroke: #000000" x1="1010" y1="-515" x2="1010" y2="-495"/>
    <line style="fill: none; fill-opacity:0; stroke-width: 2; stroke: #000000" x1="1110" y1="-515" x2="1110" y2="-495"/>
    <path style="fill: none; fill-opacity:0; stroke-width: 2; stroke: #000000" d="M 1010,-495 A 5,5 0 0 0 1015,-490"/>
    <path style="fill: none; fill-opacity:0; stroke-width: 2; stroke: #000000" d="M 1105,-490 A 5,5 0 0 0 1110,-495"/>
    <text font-size="9.03111" style="fill: #000000;text-anchor:middle;font-family:sans-serif;font-style:normal;font-weight:normal" x="1060" y="-507.889">
      <tspan x="1060" y="-507.889">liblttng-ust-jul-jni</tspan>
      <tspan x="1060" y="-496.6">liblttng-ust-log4j-jni</tspan>
    </text>
  </g>
  <g>
    <rect style="fill: #cecece" x="1015" y="-560" width="90" height="30"/>
    <path style="fill: #cecece" d="M 1015,-560 A 5,5 0 0 0 1010,-555 L 1015,-555 z"/>
    <path style="fill: #cecece" d="M 1110,-555 A 5,5 0 0 0 1105,-560 L 1105,-555 z"/>
    <rect style="fill: #cecece" x="1010" y="-555" width="100" height="20"/>
    <path style="fill: #cecece" d="M 1010,-535 A 5,5 0 0 0 1015,-530 L 1015,-535 z"/>
    <path style="fill: #cecece" d="M 1105,-530 A 5,5 0 0 0 1110,-535 L 1105,-535 z"/>
    <line style="fill: none; fill-opacity:0; stroke-width: 2; stroke: #000000" x1="1015" y1="-560" x2="1105" y2="-560"/>
    <line style="fill: none; fill-opacity:0; stroke-width: 2; stroke: #000000" x1="1015" y1="-530" x2="1105" y2="-530"/>
    <path style="fill: none; fill-opacity:0; stroke-width: 2; stroke: #000000" d="M 1015,-560 A 5,5 0 0 0 1010,-555"/>
    <path style="fill: none; fill-opacity:0; stroke-width: 2; stroke: #000000" d="M 1110,-555 A 5,5 0 0 0 1105,-560"/>
    <line style="fill: none; fill-opacity:0; stroke-width: 2; stroke: #000000" x1="1010" y1="-555" x2="1010" y2="-535"/>
    <line style="fill: none; fill-opacity:0; stroke-width: 2; stroke: #000000" x1="1110" y1="-555" x2="1110" y2="-535"/>
    <path style="fill: none; fill-opacity:0; stroke-width: 2; stroke: #000000" d="M 1010,-535 A 5,5 0 0 0 1015,-530"/>
    <path style="fill: none; fill-opacity:0; stroke-width: 2; stroke: #000000" d="M 1105,-530 A 5,5 0 0 0 1110,-535"/>
    <text font-size="8.46667" style="fill: #000000;text-anchor:middle;font-family:sans-serif;font-style:normal;font-weight:normal" x="1060" y="-542.442">
      <tspan x="1060" y="-542.442">liblttng-ust-agent.jar</tspan>
    </text>
  </g>
  <line style="fill: none; fill-opacity:0; stroke-width: 2; stroke: #000000" x1="1060" y1="-530" x2="1060" y2="-520"/>
  <line style="fill: none; fill-opacity:0; stroke-width: 2; stroke: #000000" x1="1060" y1="-570" x2="1060" y2="-560"/>
  <g>
    <rect style="fill: #fff3c6" x="1155" y="-600" width="90" height="76"/>
    <path style="fill: #fff3c6" d="M 1155,-600 A 5,5 0 0 0 1150,-595 L 1155,-595 z"/>
    <path style="fill: #fff3c6" d="M 1250,-595 A 5,5 0 0 0 1245,-600 L 1245,-595 z"/>
    <rect style="fill: #fff3c6" x="1150" y="-595" width="100" height="66"/>
    <path style="fill: #fff3c6" d="M 1150,-529 A 5,5 0 0 0 1155,-524 L 1155,-529 z"/>
    <path style="fill: #fff3c6" d="M 1245,-524 A 5,5 0 0 0 1250,-529 L 1245,-529 z"/>
    <line style="fill: none; fill-opacity:0; stroke-width: 2; stroke: #000000" x1="1155" y1="-600" x2="1245" y2="-600"/>
    <line style="fill: none; fill-opacity:0; stroke-width: 2; stroke: #000000" x1="1155" y1="-524" x2="1245" y2="-524"/>
    <path style="fill: none; fill-opacity:0; stroke-width: 2; stroke: #000000" d="M 1155,-600 A 5,5 0 0 0 1150,-595"/>
    <path style="fill: none; fill-opacity:0; stroke-width: 2; stroke: #000000" d="M 1250,-595 A 5,5 0 0 0 1245,-600"/>
    <line style="fill: none; fill-opacity:0; stroke-width: 2; stroke: #000000" x1="1150" y1="-595" x2="1150" y2="-529"/>
    <line style="fill: none; fill-opacity:0; stroke-width: 2; stroke: #000000" x1="1250" y1="-595" x2="1250" y2="-529"/>
    <path style="fill: none; fill-opacity:0; stroke-width: 2; stroke: #000000" d="M 1150,-529 A 5,5 0 0 0 1155,-524"/>
    <path style="fill: none; fill-opacity:0; stroke-width: 2; stroke: #000000" d="M 1245,-524 A 5,5 0 0 0 1250,-529"/>
    <text font-size="12.8" style="fill: #000000;text-anchor:middle;font-family:sans-serif;font-style:normal;font-weight:normal" x="1200" y="-558.1">
      <tspan x="1200" y="-558.1"></tspan>
    </text>
  </g>
  <text font-size="9.03111" style="fill: #000000;text-anchor:middle;font-family:sans-serif;font-style:normal;font-weight:normal" x="1200" y="-584.875">
    <tspan x="1200" y="-584.875">Linux kernel</tspan>
  </text>
  <g>
    <rect style="fill: #ac3a3b" x="1165" y="-576" width="70" height="30"/>
    <path style="fill: #ac3a3b" d="M 1165,-576 A 5,5 0 0 0 1160,-571 L 1165,-571 z"/>
    <path style="fill: #ac3a3b" d="M 1240,-571 A 5,5 0 0 0 1235,-576 L 1235,-571 z"/>
    <rect style="fill: #ac3a3b" x="1160" y="-571" width="80" height="20"/>
    <path style="fill: #ac3a3b" d="M 1160,-551 A 5,5 0 0 0 1165,-546 L 1165,-551 z"/>
    <path style="fill: #ac3a3b" d="M 1235,-546 A 5,5 0 0 0 1240,-551 L 1235,-551 z"/>
    <line style="fill: none; fill-opacity:0; stroke-width: 2; stroke: #000000" x1="1165" y1="-576" x2="1235" y2="-576"/>
    <line style="fill: none; fill-opacity:0; stroke-width: 2; stroke: #000000" x1="1165" y1="-546" x2="1235" y2="-546"/>
    <path style="fill: none; fill-opacity:0; stroke-width: 2; stroke: #000000" d="M 1165,-576 A 5,5 0 0 0 1160,-571"/>
    <path style="fill: none; fill-opacity:0; stroke-width: 2; stroke: #000000" d="M 1240,-571 A 5,5 0 0 0 1235,-576"/>
    <line style="fill: none; fill-opacity:0; stroke-width: 2; stroke: #000000" x1="1160" y1="-571" x2="1160" y2="-551"/>
    <line style="fill: none; fill-opacity:0; stroke-width: 2; stroke: #000000" x1="1240" y1="-571" x2="1240" y2="-551"/>
    <path style="fill: none; fill-opacity:0; stroke-width: 2; stroke: #000000" d="M 1160,-551 A 5,5 0 0 0 1165,-546"/>
    <path style="fill: none; fill-opacity:0; stroke-width: 2; stroke: #000000" d="M 1235,-546 A 5,5 0 0 0 1240,-551"/>
    <text font-size="9.03111" style="fill: #ffffff;text-anchor:middle;font-family:sans-serif;font-style:normal;font-weight:normal" x="1200" y="-558.244">
      <tspan x="1200" y="-558.244">LTTng modules</tspan>
    </text>
  </g>
  <g>
    <rect style="fill: #c6ebff" x="1015" y="-410" width="90" height="30"/>
    <path style="fill: #c6ebff" d="M 1015,-410 A 5,5 0 0 0 1010,-405 L 1015,-405 z"/>
    <path style="fill: #c6ebff" d="M 1110,-405 A 5,5 0 0 0 1105,-410 L 1105,-405 z"/>
    <rect style="fill: #c6ebff" x="1010" y="-405" width="100" height="20"/>
    <path style="fill: #c6ebff" d="M 1010,-385 A 5,5 0 0 0 1015,-380 L 1015,-385 z"/>
    <path style="fill: #c6ebff" d="M 1105,-380 A 5,5 0 0 0 1110,-385 L 1105,-385 z"/>
    <line style="fill: none; fill-opacity:0; stroke-width: 2; stroke: #000000" x1="1015" y1="-410" x2="1105" y2="-410"/>
    <line style="fill: none; fill-opacity:0; stroke-width: 2; stroke: #000000" x1="1015" y1="-380" x2="1105" y2="-380"/>
    <path style="fill: none; fill-opacity:0; stroke-width: 2; stroke: #000000" d="M 1015,-410 A 5,5 0 0 0 1010,-405"/>
    <path style="fill: none; fill-opacity:0; stroke-width: 2; stroke: #000000" d="M 1110,-405 A 5,5 0 0 0 1105,-410"/>
    <line style="fill: none; fill-opacity:0; stroke-width: 2; stroke: #000000" x1="1010" y1="-405" x2="1010" y2="-385"/>
    <line style="fill: none; fill-opacity:0; stroke-width: 2; stroke: #000000" x1="1110" y1="-405" x2="1110" y2="-385"/>
    <path style="fill: none; fill-opacity:0; stroke-width: 2; stroke: #000000" d="M 1010,-385 A 5,5 0 0 0 1015,-380"/>
    <path style="fill: none; fill-opacity:0; stroke-width: 2; stroke: #000000" d="M 1105,-380 A 5,5 0 0 0 1110,-385"/>
    <text font-size="9.03111" style="fill: #000000;text-anchor:middle;font-family:sans-serif;font-style:normal;font-weight:normal" x="1060" y="-392.244">
      <tspan x="1060" y="-392.244">lttng-sessiond</tspan>
    </text>
  </g>
  <g>
    <line style="fill: none; fill-opacity:0; stroke-width: 2; stroke-dasharray: 4; stroke: #eb595e" x1="1060" y1="-441.764" x2="1060" y2="-418.236"/>
    <polygon style="fill: #eb595e" points="1060,-447.764 1064,-439.764 1060,-441.764 1056,-439.764 "/>
    <polygon style="fill: none; fill-opacity:0; stroke-width: 2; stroke: #eb595e" points="1060,-447.764 1064,-439.764 1060,-441.764 1056,-439.764 "/>
    <polygon style="fill: #eb595e" points="1060,-412.236 1056,-420.236 1060,-418.236 1064,-420.236 "/>
    <polygon style="fill: none; fill-opacity:0; stroke-width: 2; stroke: #eb595e" points="1060,-412.236 1056,-420.236 1060,-418.236 1064,-420.236 "/>
  </g>
  <g>
    <polyline style="fill: none; fill-opacity:0; stroke-width: 2; stroke-dasharray: 4; stroke: #eb595e" points="965,-491.764 965,-432 1035,-432 1035,-418.236 "/>
    <polygon style="fill: #eb595e" points="965,-497.764 969,-489.764 965,-491.764 961,-489.764 "/>
    <polygon style="fill: none; fill-opacity:0; stroke-width: 2; stroke: #eb595e" points="965,-497.764 969,-489.764 965,-491.764 961,-489.764 "/>
    <polygon style="fill: #eb595e" points="1035,-412.236 1031,-420.236 1035,-418.236 1039,-420.236 "/>
    <polygon style="fill: none; fill-opacity:0; stroke-width: 2; stroke: #eb595e" points="1035,-412.236 1031,-420.236 1035,-418.236 1039,-420.236 "/>
  </g>
  <g>
    <polyline style="fill: none; fill-opacity:0; stroke-width: 2; stroke-dasharray: 4; stroke: #eb595e" points="1180,-537.764 1180,-402.5 1118.24,-402.5 "/>
    <polygon style="fill: #eb595e" points="1180,-543.764 1184,-535.764 1180,-537.764 1176,-535.764 "/>
    <polygon style="fill: none; fill-opacity:0; stroke-width: 2; stroke: #eb595e" points="1180,-543.764 1184,-535.764 1180,-537.764 1176,-535.764 "/>
    <polygon style="fill: #eb595e" points="1112.24,-402.5 1120.24,-406.5 1118.24,-402.5 1120.24,-398.5 "/>
    <polygon style="fill: none; fill-opacity:0; stroke-width: 2; stroke: #eb595e" points="1112.24,-402.5 1120.24,-406.5 1118.24,-402.5 1120.24,-398.5 "/>
  </g>
  <g>
    <rect style="fill: #c6ebff" x="1015" y="-348" width="90" height="30"/>
    <path style="fill: #c6ebff" d="M 1015,-348 A 5,5 0 0 0 1010,-343 L 1015,-343 z"/>
    <path style="fill: #c6ebff" d="M 1110,-343 A 5,5 0 0 0 1105,-348 L 1105,-343 z"/>
    <rect style="fill: #c6ebff" x="1010" y="-343" width="100" height="20"/>
    <path style="fill: #c6ebff" d="M 1010,-323 A 5,5 0 0 0 1015,-318 L 1015,-323 z"/>
    <path style="fill: #c6ebff" d="M 1105,-318 A 5,5 0 0 0 1110,-323 L 1105,-323 z"/>
    <line style="fill: none; fill-opacity:0; stroke-width: 2; stroke: #000000" x1="1015" y1="-348" x2="1105" y2="-348"/>
    <line style="fill: none; fill-opacity:0; stroke-width: 2; stroke: #000000" x1="1015" y1="-318" x2="1105" y2="-318"/>
    <path style="fill: none; fill-opacity:0; stroke-width: 2; stroke: #000000" d="M 1015,-348 A 5,5 0 0 0 1010,-343"/>
    <path style="fill: none; fill-opacity:0; stroke-width: 2; stroke: #000000" d="M 1110,-343 A 5,5 0 0 0 1105,-348"/>
    <line style="fill: none; fill-opacity:0; stroke-width: 2; stroke: #000000" x1="1010" y1="-343" x2="1010" y2="-323"/>
    <line style="fill: none; fill-opacity:0; stroke-width: 2; stroke: #000000" x1="1110" y1="-343" x2="1110" y2="-323"/>
    <path style="fill: none; fill-opacity:0; stroke-width: 2; stroke: #000000" d="M 1010,-323 A 5,5 0 0 0 1015,-318"/>
    <path style="fill: none; fill-opacity:0; stroke-width: 2; stroke: #000000" d="M 1105,-318 A 5,5 0 0 0 1110,-323"/>
    <text font-size="9.03111" style="fill: #000000;text-anchor:middle;font-family:sans-serif;font-style:normal;font-weight:normal" x="1060" y="-330.244">
      <tspan x="1060" y="-330.244">lttng-consumerd</tspan>
    </text>
  </g>
  <g>
    <polyline style="fill: none; fill-opacity:0; stroke-width: 2; stroke: #000000" points="1010,-465 984,-465 984,-340.5 1001.76,-340.5 "/>
    <polygon style="fill: #000000" points="1007.76,-340.5 999.764,-336.5 1001.76,-340.5 999.764,-344.5 "/>
    <polygon style="fill: none; fill-opacity:0; stroke-width: 2; stroke: #000000" points="1007.76,-340.5 999.764,-336.5 1001.76,-340.5 999.764,-344.5 "/>
  </g>
  <g>
    <polyline style="fill: none; fill-opacity:0; stroke-width: 2; stroke: #000000" points="940,-500 940,-500 940,-325.5 1001.76,-325.5 "/>
    <polygon style="fill: #000000" points="1007.76,-325.5 999.764,-321.5 1001.76,-325.5 999.764,-329.5 "/>
    <polygon style="fill: none; fill-opacity:0; stroke-width: 2; stroke: #000000" points="1007.76,-325.5 999.764,-321.5 1001.76,-325.5 999.764,-329.5 "/>
  </g>
  <g>
    <polyline style="fill: none; fill-opacity:0; stroke-width: 2; stroke: #000000" points="1200,-546 1200,-333 1118.24,-333 "/>
    <polygon style="fill: #000000" points="1112.24,-333 1120.24,-337 1118.24,-333 1120.24,-329 "/>
    <polygon style="fill: none; fill-opacity:0; stroke-width: 2; stroke: #000000" points="1112.24,-333 1120.24,-337 1118.24,-333 1120.24,-329 "/>
  </g>
  <g>
    <line style="fill: none; fill-opacity:0; stroke-width: 2; stroke-dasharray: 4; stroke: #eb595e" x1="1060" y1="-371.764" x2="1060" y2="-356.236"/>
    <polygon style="fill: #eb595e" points="1060,-377.764 1064,-369.764 1060,-371.764 1056,-369.764 "/>
    <polygon style="fill: none; fill-opacity:0; stroke-width: 2; stroke: #eb595e" points="1060,-377.764 1064,-369.764 1060,-371.764 1056,-369.764 "/>
    <polygon style="fill: #eb595e" points="1060,-350.236 1056,-358.236 1060,-356.236 1064,-358.236 "/>
    <polygon style="fill: none; fill-opacity:0; stroke-width: 2; stroke: #eb595e" points="1060,-350.236 1056,-358.236 1060,-356.236 1064,-358.236 "/>
  </g>
  <g>
    <rect style="fill: #c6ebff" x="1185" y="-270" width="60" height="30"/>
    <path style="fill: #c6ebff" d="M 1185,-270 A 5,5 0 0 0 1180,-265 L 1185,-265 z"/>
    <path style="fill: #c6ebff" d="M 1250,-265 A 5,5 0 0 0 1245,-270 L 1245,-265 z"/>
    <rect style="fill: #c6ebff" x="1180" y="-265" width="70" height="20"/>
    <path style="fill: #c6ebff" d="M 1180,-245 A 5,5 0 0 0 1185,-240 L 1185,-245 z"/>
    <path style="fill: #c6ebff" d="M 1245,-240 A 5,5 0 0 0 1250,-245 L 1245,-245 z"/>
    <line style="fill: none; fill-opacity:0; stroke-width: 2; stroke: #000000" x1="1185" y1="-270" x2="1245" y2="-270"/>
    <line style="fill: none; fill-opacity:0; stroke-width: 2; stroke: #000000" x1="1185" y1="-240" x2="1245" y2="-240"/>
    <path style="fill: none; fill-opacity:0; stroke-width: 2; stroke: #000000" d="M 1185,-270 A 5,5 0 0 0 1180,-265"/>
    <path style="fill: none; fill-opacity:0; stroke-width: 2; stroke: #000000" d="M 1250,-265 A 5,5 0 0 0 1245,-270"/>
    <line style="fill: none; fill-opacity:0; stroke-width: 2; stroke: #000000" x1="1180" y1="-265" x2="1180" y2="-245"/>
    <line style="fill: none; fill-opacity:0; stroke-width: 2; stroke: #000000" x1="1250" y1="-265" x2="1250" y2="-245"/>
    <path style="fill: none; fill-opacity:0; stroke-width: 2; stroke: #000000" d="M 1180,-245 A 5,5 0 0 0 1185,-240"/>
    <path style="fill: none; fill-opacity:0; stroke-width: 2; stroke: #000000" d="M 1245,-240 A 5,5 0 0 0 1250,-245"/>
    <text font-size="9.03111" style="fill: #000000;text-anchor:middle;font-family:sans-serif;font-style:normal;font-weight:normal" x="1215" y="-252.244">
      <tspan x="1215" y="-252.244">lttng (CLI)</tspan>
    </text>
  </g>
  <g>
    <rect style="fill: #d2edd2" x="1185" y="-310" width="60" height="30"/>
    <path style="fill: #d2edd2" d="M 1185,-310 A 5,5 0 0 0 1180,-305 L 1185,-305 z"/>
    <path style="fill: #d2edd2" d="M 1250,-305 A 5,5 0 0 0 1245,-310 L 1245,-305 z"/>
    <rect style="fill: #d2edd2" x="1180" y="-305" width="70" height="20"/>
    <path style="fill: #d2edd2" d="M 1180,-285 A 5,5 0 0 0 1185,-280 L 1185,-285 z"/>
    <path style="fill: #d2edd2" d="M 1245,-280 A 5,5 0 0 0 1250,-285 L 1245,-285 z"/>
    <line style="fill: none; fill-opacity:0; stroke-width: 2; stroke: #000000" x1="1185" y1="-310" x2="1245" y2="-310"/>
    <line style="fill: none; fill-opacity:0; stroke-width: 2; stroke: #000000" x1="1185" y1="-280" x2="1245" y2="-280"/>
    <path style="fill: none; fill-opacity:0; stroke-width: 2; stroke: #000000" d="M 1185,-310 A 5,5 0 0 0 1180,-305"/>
    <path style="fill: none; fill-opacity:0; stroke-width: 2; stroke: #000000" d="M 1250,-305 A 5,5 0 0 0 1245,-310"/>
    <line style="fill: none; fill-opacity:0; stroke-width: 2; stroke: #000000" x1="1180" y1="-305" x2="1180" y2="-285"/>
    <line style="fill: none; fill-opacity:0; stroke-width: 2; stroke: #000000" x1="1250" y1="-305" x2="1250" y2="-285"/>
    <path style="fill: none; fill-opacity:0; stroke-width: 2; stroke: #000000" d="M 1180,-285 A 5,5 0 0 0 1185,-280"/>
    <path style="fill: none; fill-opacity:0; stroke-width: 2; stroke: #000000" d="M 1245,-280 A 5,5 0 0 0 1250,-285"/>
    <text font-size="9.03111" style="fill: #000000;text-anchor:middle;font-family:sans-serif;font-style:normal;font-weight:normal" x="1215" y="-292.244">
      <tspan x="1215" y="-292.244">liblttng-ctl</tspan>
    </text>
  </g>
  <line style="fill: none; fill-opacity:0; stroke-width: 2; stroke: #000000" x1="1215" y1="-280" x2="1215" y2="-270"/>
  <g>
    <polyline style="fill: none; fill-opacity:0; stroke-width: 2; stroke-dasharray: 4; stroke: #eb595e" points="1118.24,-545 1132,-545 1132,-434 1085,-434 1085,-418.236 "/>
    <polygon style="fill: #eb595e" points="1112.24,-545 1120.24,-549 1118.24,-545 1120.24,-541 "/>
    <polygon style="fill: none; fill-opacity:0; stroke-width: 2; stroke: #eb595e" points="1112.24,-545 1120.24,-549 1118.24,-545 1120.24,-541 "/>
    <polygon style="fill: #eb595e" points="1085,-412.236 1081,-420.236 1085,-418.236 1089,-420.236 "/>
    <polygon style="fill: none; fill-opacity:0; stroke-width: 2; stroke: #eb595e" points="1085,-412.236 1081,-420.236 1085,-418.236 1089,-420.236 "/>
  </g>
  <g>
    <polyline style="fill: none; fill-opacity:0; stroke-width: 2; stroke-dasharray: 4; stroke: #eb595e" points="1118.24,-387.5 1215,-387.5 1215,-318.236 "/>
    <polygon style="fill: #eb595e" points="1112.24,-387.5 1120.24,-391.5 1118.24,-387.5 1120.24,-383.5 "/>
    <polygon style="fill: none; fill-opacity:0; stroke-width: 2; stroke: #eb595e" points="1112.24,-387.5 1120.24,-391.5 1118.24,-387.5 1120.24,-383.5 "/>
    <polygon style="fill: #eb595e" points="1215,-312.236 1211,-320.236 1215,-318.236 1219,-320.236 "/>
    <polygon style="fill: none; fill-opacity:0; stroke-width: 2; stroke: #eb595e" points="1215,-312.236 1211,-320.236 1215,-318.236 1219,-320.236 "/>
  </g>
  <text font-size="11.2889" style="fill: #000000;text-anchor:middle;font-family:sans-serif;font-style:normal;font-weight:700" x="1060" y="-616.075">
    <tspan x="1060" y="-616.075">Target (monitored) system</tspan>
  </text>
  <text font-size="11.2889" style="fill: #000000;text-anchor:middle;font-family:sans-serif;font-style:normal;font-weight:700" x="1030" y="-116.075">
    <tspan x="1030" y="-116.075">Remote system</tspan>
  </text>
  <g>
    <rect style="fill: #c6ebff" x="1015" y="-190" width="90" height="30"/>
    <path style="fill: #c6ebff" d="M 1015,-190 A 5,5 0 0 0 1010,-185 L 1015,-185 z"/>
    <path style="fill: #c6ebff" d="M 1110,-185 A 5,5 0 0 0 1105,-190 L 1105,-185 z"/>
    <rect style="fill: #c6ebff" x="1010" y="-185" width="100" height="20"/>
    <path style="fill: #c6ebff" d="M 1010,-165 A 5,5 0 0 0 1015,-160 L 1015,-165 z"/>
    <path style="fill: #c6ebff" d="M 1105,-160 A 5,5 0 0 0 1110,-165 L 1105,-165 z"/>
    <line style="fill: none; fill-opacity:0; stroke-width: 2; stroke: #000000" x1="1015" y1="-190" x2="1105" y2="-190"/>
    <line style="fill: none; fill-opacity:0; stroke-width: 2; stroke: #000000" x1="1015" y1="-160" x2="1105" y2="-160"/>
    <path style="fill: none; fill-opacity:0; stroke-width: 2; stroke: #000000" d="M 1015,-190 A 5,5 0 0 0 1010,-185"/>
    <path style="fill: none; fill-opacity:0; stroke-width: 2; stroke: #000000" d="M 1110,-185 A 5,5 0 0 0 1105,-190"/>
    <line style="fill: none; fill-opacity:0; stroke-width: 2; stroke: #000000" x1="1010" y1="-185" x2="1010" y2="-165"/>
    <line style="fill: none; fill-opacity:0; stroke-width: 2; stroke: #000000" x1="1110" y1="-185" x2="1110" y2="-165"/>
    <path style="fill: none; fill-opacity:0; stroke-width: 2; stroke: #000000" d="M 1010,-165 A 5,5 0 0 0 1015,-160"/>
    <path style="fill: none; fill-opacity:0; stroke-width: 2; stroke: #000000" d="M 1105,-160 A 5,5 0 0 0 1110,-165"/>
    <text font-size="9.03111" style="fill: #000000;text-anchor:middle;font-family:sans-serif;font-style:normal;font-weight:normal" x="1060" y="-172.244">
      <tspan x="1060" y="-172.244">lttng-relayd</tspan>
    </text>
  </g>
  <g>
    <line style="fill: none; fill-opacity:0; stroke-width: 2; stroke: #000000" x1="1060" y1="-318" x2="1060" y2="-198.236"/>
    <polygon style="fill: #000000" points="1060,-192.236 1056,-200.236 1060,-198.236 1064,-200.236 "/>
    <polygon style="fill: none; fill-opacity:0; stroke-width: 2; stroke: #000000" points="1060,-192.236 1056,-200.236 1060,-198.236 1064,-200.236 "/>
  </g>
  <g>
    <path style="fill: #ffffff" d="M 920 -290.333 C 928.57,-297.583 932.855,-300 941.425,-300 C 949.995,-300 954.28,-297.583 962.85,-290.333 L 962.85,-251.667 C 954.28,-244.417 949.995,-242 941.425,-242 C 932.855,-242 928.57,-244.417 920,-251.667 L 920,-290.333z"/>
    <path style="fill: none; fill-opacity:0; stroke-width: 2; stroke: #000000" d="M 920 -290.333 C 928.57,-297.583 932.855,-300 941.425,-300 C 949.995,-300 954.28,-297.583 962.85,-290.333 L 962.85,-251.667 C 954.28,-244.417 949.995,-242 941.425,-242 C 932.855,-242 928.57,-244.417 920,-251.667 L 920,-290.333"/>
    <path style="fill: none; fill-opacity:0; stroke-width: 2; stroke: #000000" d="M 920 -290.333 C 928.57,-283.083 932.855,-280.667 941.425,-280.667 C 949.995,-280.667 954.28,-283.083 962.85,-290.333"/>
    <text font-size="9.03111" style="fill: #000000;text-anchor:middle;font-family:sans-serif;font-style:normal;font-weight:normal" x="941.425" y="-268.989">
      <tspan x="941.425" y="-268.989">CTF</tspan>
      <tspan x="941.425" y="-257.7">traces</tspan>
    </text>
  </g>
  <g>
    <polyline style="fill: none; fill-opacity:0; stroke-width: 2; stroke: #000000" points="1035,-318 1035,-275.833 971.086,-275.833 "/>
    <polygon style="fill: #000000" points="965.086,-275.833 973.086,-279.833 971.086,-275.833 973.086,-271.833 "/>
    <polygon style="fill: none; fill-opacity:0; stroke-width: 2; stroke: #000000" points="965.086,-275.833 973.086,-279.833 971.086,-275.833 973.086,-271.833 "/>
  </g>
  <g>
    <path style="fill: #ffffff" d="M 920 -189.652 C 928.57,-196.902 932.855,-199.318 941.425,-199.318 C 949.995,-199.318 954.28,-196.902 962.85,-189.652 L 962.85,-150.985 C 954.28,-143.735 949.995,-141.318 941.425,-141.318 C 932.855,-141.318 928.57,-143.735 920,-150.985 L 920,-189.652z"/>
    <path style="fill: none; fill-opacity:0; stroke-width: 2; stroke: #000000" d="M 920 -189.652 C 928.57,-196.902 932.855,-199.318 941.425,-199.318 C 949.995,-199.318 954.28,-196.902 962.85,-189.652 L 962.85,-150.985 C 954.28,-143.735 949.995,-141.318 941.425,-141.318 C 932.855,-141.318 928.57,-143.735 920,-150.985 L 920,-189.652"/>
    <path style="fill: none; fill-opacity:0; stroke-width: 2; stroke: #000000" d="M 920 -189.652 C 928.57,-182.402 932.855,-179.985 941.425,-179.985 C 949.995,-179.985 954.28,-182.402 962.85,-189.652"/>
    <text font-size="9.03111" style="fill: #000000;text-anchor:middle;font-family:sans-serif;font-style:normal;font-weight:normal" x="941.425" y="-168.307">
      <tspan x="941.425" y="-168.307">CTF</tspan>
      <tspan x="941.425" y="-157.018">traces</tspan>
    </text>
  </g>
  <text font-size="9.03111" style="fill: #000000;text-anchor:middle;font-family:sans-serif;font-style:normal;font-weight:normal" x="1030" y="-106.875">
    <tspan x="1030" y="-106.875">(may be local as well)</tspan>
  </text>
  <g>
    <line style="fill: none; fill-opacity:0; stroke-width: 2; stroke: #000000" x1="971.086" y1="-175.125" x2="1010" y2="-175"/>
    <polygon style="fill: #000000" points="965.086,-175.145 973.099,-179.119 971.086,-175.125 973.073,-171.119 "/>
    <polygon style="fill: none; fill-opacity:0; stroke-width: 2; stroke: #000000" points="965.086,-175.145 973.099,-179.119 971.086,-175.125 973.073,-171.119 "/>
  </g>
  <g>
    <polyline style="fill: none; fill-opacity:0; stroke-width: 2; stroke-dasharray: 4; stroke: #eb595e" points="1085,-371.764 1085,-359.6 1140,-359.6 1140,-175 1118.24,-175 "/>
    <polygon style="fill: #eb595e" points="1085,-377.764 1089,-369.764 1085,-371.764 1081,-369.764 "/>
    <polygon style="fill: none; fill-opacity:0; stroke-width: 2; stroke: #eb595e" points="1085,-377.764 1089,-369.764 1085,-371.764 1081,-369.764 "/>
    <polygon style="fill: #eb595e" points="1112.24,-175 1120.24,-179 1118.24,-175 1120.24,-171 "/>
    <polygon style="fill: none; fill-opacity:0; stroke-width: 2; stroke: #eb595e" points="1112.24,-175 1120.24,-179 1118.24,-175 1120.24,-171 "/>
  </g>
  <g>
    <line style="fill: none; fill-opacity:0; stroke-width: 2; stroke-dasharray: 4; stroke: #eb595e" x1="1188.24" y1="-190" x2="1251.76" y2="-190"/>
    <polygon style="fill: #eb595e" points="1182.24,-190 1190.24,-194 1188.24,-190 1190.24,-186 "/>
    <polygon style="fill: none; fill-opacity:0; stroke-width: 2; stroke: #eb595e" points="1182.24,-190 1190.24,-194 1188.24,-190 1190.24,-186 "/>
    <polygon style="fill: #eb595e" points="1257.76,-190 1249.76,-186 1251.76,-190 1249.76,-194 "/>
    <polygon style="fill: none; fill-opacity:0; stroke-width: 2; stroke: #eb595e" points="1257.76,-190 1249.76,-186 1251.76,-190 1249.76,-194 "/>
  </g>
  <g>
    <rect style="fill: #f0f0f0" x="1051.62" y="-265.275" width="16.75" height="10.55"/>
    <text font-size="9.03111" style="fill: #000000;text-anchor:middle;font-family:sans-serif;font-style:normal;font-weight:normal" x="1060" y="-256.875">
      <tspan x="1060" y="-256.875">TCP</tspan>
    </text>
  </g>
  <g>
    <rect style="fill: #f0f0f0" x="1131.62" y="-265.275" width="16.75" height="10.55"/>
    <text font-size="9.03111" style="fill: #eb595e;text-anchor:middle;font-family:sans-serif;font-style:normal;font-weight:normal" x="1140" y="-256.875">
      <tspan x="1140" y="-256.875">TCP</tspan>
    </text>
  </g>
  <text font-size="9.03111" style="fill: #eb595e;text-anchor:middle;font-family:sans-serif;font-style:normal;font-weight:normal" x="1220" y="-196.875">
    <tspan x="1220" y="-196.875">Control</tspan>
  </text>
  <g>
    <line style="fill: none; fill-opacity:0; stroke-width: 2; stroke: #000000" x1="1180" y1="-160" x2="1251.76" y2="-160"/>
    <polygon style="fill: #000000" points="1257.76,-160 1249.76,-156 1251.76,-160 1249.76,-164 "/>
    <polygon style="fill: none; fill-opacity:0; stroke-width: 2; stroke: #000000" points="1257.76,-160 1249.76,-156 1251.76,-160 1249.76,-164 "/>
  </g>
  <text font-size="9.03111" style="fill: #000000;text-anchor:middle;font-family:sans-serif;font-style:normal;font-weight:normal" x="1220" y="-166.875">
    <tspan x="1220" y="-166.875">Trace data</tspan>
  </text>
</svg>
